# MagicaVoxel @ ephtracy

# material
mtllib helmet-1.mtl
usemtl palette

# normals
vn -1 0 0
vn 1 0 0
vn 0 0 1
vn 0 0 -1
vn 0 -1 0
vn 0 1 0

# texcoords
vt 0.0175781 0.5
vt 0.0332031 0.5
vt 0.537109 0.5
vt 0.970703 0.5
vt 0.986328 0.5
vt 0.994141 0.5

# verts
v -4 2 -3
v -4 2 -4
v -4 3 -0
v -4 3 -3
v -4 4 1
v -4 4 -0
v -4 6 2
v -4 6 1
v -4 6 -4
v -4 6 -5
v -4 7 2
v -4 7 1
v -4 7 -4
v -4 7 -5
v -4 8 1
v -4 8 -4
v -3 0 -0
v -3 0 -4
v -3 2 -3
v -3 2 -4
v -3 2 -5
v -3 3 1
v -3 3 -0
v -3 3 -3
v -3 4 2
v -3 4 1
v -3 4 -0
v -3 5 4
v -3 5 2
v -3 6 2
v -3 6 1
v -3 6 -4
v -3 6 -5
v -3 6 -6
v -3 7 4
v -3 7 3
v -3 7 2
v -3 7 1
v -3 7 -4
v -3 7 -5
v -3 7 -6
v -3 8 3
v -3 8 1
v -3 8 -4
v -3 8 -5
v -3 9 1
v -3 9 -4
v -2 1 -4
v -2 1 -5
v -2 2 -4
v -2 2 -5
v -2 4 -5
v -2 4 -6
v -2 6 -5
v -2 6 -6
v -2 7 4
v -2 7 3
v -2 7 -5
v -2 7 -6
v -2 8 4
v -2 8 3
v -2 8 1
v -2 8 -4
v -2 8 -5
v -2 8 -6
v -2 9 3
v -2 9 1
v -2 9 -0
v -2 9 -4
v -2 9 -5
v -2 10 -0
v -2 10 -4
v -1 3 -5
v -1 3 -6
v -1 4 -5
v -1 4 -6
v -1 9 2
v -1 9 -0
v -1 10 2
v -1 10 -0
v 2 0 -0
v 2 0 -2
v 2 3 1
v 2 3 -0
v 2 3 -2
v 2 4 2
v 2 4 1
v 2 4 -0
v 2 4 -2
v 2 4 -3
v 2 5 2
v 2 5 1
v 2 6 1
v 2 6 -3
v -2 0 -0
v -2 0 -2
v -2 3 1
v -2 3 -0
v -2 3 -2
v -2 4 2
v -2 4 1
v -2 4 -0
v -2 4 -2
v -2 4 -3
v -2 5 2
v -2 5 1
v -2 6 1
v -2 6 -3
v 1 3 -5
v 1 3 -6
v 1 4 -5
v 1 4 -6
v 1 9 2
v 1 9 -0
v 1 10 2
v 1 10 -0
v 2 1 -4
v 2 1 -5
v 2 2 -4
v 2 2 -5
v 2 4 -5
v 2 4 -6
v 2 6 -5
v 2 6 -6
v 2 7 4
v 2 7 3
v 2 7 -5
v 2 7 -6
v 2 8 4
v 2 8 3
v 2 8 1
v 2 8 -4
v 2 8 -5
v 2 8 -6
v 2 9 3
v 2 9 1
v 2 9 -0
v 2 9 -4
v 2 9 -5
v 2 10 -0
v 2 10 -4
v 3 0 -0
v 3 0 -4
v 3 2 -3
v 3 2 -4
v 3 2 -5
v 3 3 1
v 3 3 -0
v 3 3 -3
v 3 4 2
v 3 4 1
v 3 4 -0
v 3 5 4
v 3 5 2
v 3 6 2
v 3 6 1
v 3 6 -4
v 3 6 -5
v 3 6 -6
v 3 7 4
v 3 7 3
v 3 7 2
v 3 7 1
v 3 7 -4
v 3 7 -5
v 3 7 -6
v 3 8 3
v 3 8 1
v 3 8 -4
v 3 8 -5
v 3 9 1
v 3 9 -4
v 4 2 -3
v 4 2 -4
v 4 3 -0
v 4 3 -3
v 4 4 1
v 4 4 -0
v 4 6 2
v 4 6 1
v 4 6 -4
v 4 6 -5
v 4 7 2
v 4 7 1
v 4 7 -4
v 4 7 -5
v 4 8 1
v 4 8 -4
v -3 5 4
v -3 7 4
v -2 7 4
v -2 8 4
v 2 7 4
v 2 8 4
v 3 5 4
v 3 7 4
v -3 7 3
v -3 8 3
v -2 7 3
v -2 8 3
v -2 9 3
v 2 7 3
v 2 8 3
v 2 9 3
v 3 7 3
v 3 8 3
v -4 6 2
v -4 7 2
v -3 4 2
v -3 5 2
v -3 6 2
v -3 7 2
v -2 4 2
v -2 5 2
v -1 9 2
v -1 10 2
v 1 9 2
v 1 10 2
v 2 4 2
v 2 5 2
v 3 4 2
v 3 5 2
v 3 6 2
v 3 7 2
v 4 6 2
v 4 7 2
v -4 4 1
v -4 6 1
v -4 7 1
v -4 8 1
v -3 3 1
v -3 4 1
v -3 6 1
v -3 7 1
v -3 8 1
v -3 9 1
v -2 3 1
v -2 4 1
v -2 8 1
v -2 9 1
v 2 3 1
v 2 4 1
v 2 8 1
v 2 9 1
v 3 3 1
v 3 4 1
v 3 6 1
v 3 7 1
v 3 8 1
v 3 9 1
v 4 4 1
v 4 6 1
v 4 7 1
v 4 8 1
v -4 3 -0
v -4 4 -0
v -3 0 -0
v -3 3 -0
v -3 4 -0
v -2 0 -0
v -2 3 -0
v -2 9 -0
v -2 10 -0
v -1 9 -0
v -1 10 -0
v 1 9 -0
v 1 10 -0
v 2 0 -0
v 2 3 -0
v 2 9 -0
v 2 10 -0
v 3 0 -0
v 3 3 -0
v 3 4 -0
v 4 3 -0
v 4 4 -0
v -2 0 -2
v -2 3 -2
v -2 4 -2
v 2 0 -2
v 2 3 -2
v 2 4 -2
v -4 2 -3
v -4 3 -3
v -3 2 -3
v -3 3 -3
v -2 4 -3
v -2 6 -3
v 2 4 -3
v 2 6 -3
v 3 2 -3
v 3 3 -3
v 4 2 -3
v 4 3 -3
v -2 5 1
v -2 6 1
v 2 5 1
v 2 6 1
v -4 2 -4
v -4 6 -4
v -4 7 -4
v -4 8 -4
v -3 0 -4
v -3 2 -4
v -3 6 -4
v -3 7 -4
v -3 8 -4
v -3 9 -4
v -2 1 -4
v -2 2 -4
v -2 8 -4
v -2 9 -4
v -2 10 -4
v 2 1 -4
v 2 2 -4
v 2 8 -4
v 2 9 -4
v 2 10 -4
v 3 0 -4
v 3 2 -4
v 3 6 -4
v 3 7 -4
v 3 8 -4
v 3 9 -4
v 4 2 -4
v 4 6 -4
v 4 7 -4
v 4 8 -4
v -4 6 -5
v -4 7 -5
v -3 2 -5
v -3 6 -5
v -3 7 -5
v -3 8 -5
v -2 1 -5
v -2 2 -5
v -2 4 -5
v -2 6 -5
v -2 7 -5
v -2 8 -5
v -2 9 -5
v -1 3 -5
v -1 4 -5
v 1 3 -5
v 1 4 -5
v 2 1 -5
v 2 2 -5
v 2 4 -5
v 2 6 -5
v 2 7 -5
v 2 8 -5
v 2 9 -5
v 3 2 -5
v 3 6 -5
v 3 7 -5
v 3 8 -5
v 4 6 -5
v 4 7 -5
v -3 6 -6
v -3 7 -6
v -2 4 -6
v -2 6 -6
v -2 7 -6
v -2 8 -6
v -1 3 -6
v -1 4 -6
v 1 3 -6
v 1 4 -6
v 2 4 -6
v 2 6 -6
v 2 7 -6
v 2 8 -6
v 3 6 -6
v 3 7 -6
v -3 0 -0
v -2 0 -0
v 2 0 -0
v 3 0 -0
v -2 0 -2
v 2 0 -2
v -2 0 -3
v 2 0 -3
v -3 0 -4
v 3 0 -4
v -2 1 -4
v 2 1 -4
v -2 1 -5
v 2 1 -5
v -4 2 -3
v -3 2 -3
v 3 2 -3
v 4 2 -3
v -4 2 -4
v -3 2 -4
v -2 2 -4
v 2 2 -4
v 3 2 -4
v 4 2 -4
v -3 2 -5
v -2 2 -5
v 2 2 -5
v 3 2 -5
v -3 3 1
v -2 3 1
v 2 3 1
v 3 3 1
v -4 3 -0
v -3 3 -0
v -2 3 -0
v 2 3 -0
v 3 3 -0
v 4 3 -0
v -4 3 -3
v -3 3 -3
v 3 3 -3
v 4 3 -3
v -1 3 -5
v 1 3 -5
v -1 3 -6
v 1 3 -6
v -3 4 2
v -2 4 2
v 2 4 2
v 3 4 2
v -4 4 1
v -3 4 1
v -2 4 1
v 2 4 1
v 3 4 1
v 4 4 1
v -4 4 -0
v -3 4 -0
v 3 4 -0
v 4 4 -0
v -2 4 -5
v -1 4 -5
v 1 4 -5
v 2 4 -5
v -2 4 -6
v -1 4 -6
v 1 4 -6
v 2 4 -6
v -3 5 4
v 3 5 4
v -3 5 2
v -2 5 2
v 2 5 2
v 3 5 2
v -2 5 1
v 2 5 1
v -4 6 2
v -3 6 2
v 3 6 2
v 4 6 2
v -4 6 1
v -3 6 1
v -2 6 1
v 2 6 1
v 3 6 1
v 4 6 1
v -2 6 -3
v 2 6 -3
v -4 6 -4
v -3 6 -4
v 3 6 -4
v 4 6 -4
v -4 6 -5
v -3 6 -5
v -2 6 -5
v 2 6 -5
v 3 6 -5
v 4 6 -5
v -3 6 -6
v -2 6 -6
v 2 6 -6
v 3 6 -6
v -2 4 -2
v 2 4 -2
v -2 4 -3
v 2 4 -3
v -3 7 4
v -2 7 4
v 2 7 4
v 3 7 4
v -3 7 3
v -2 7 3
v 2 7 3
v 3 7 3
v -4 7 2
v -3 7 2
v 3 7 2
v 4 7 2
v -4 7 1
v -3 7 1
v 3 7 1
v 4 7 1
v -4 7 -4
v -3 7 -4
v 3 7 -4
v 4 7 -4
v -4 7 -5
v -3 7 -5
v -2 7 -5
v 2 7 -5
v 3 7 -5
v 4 7 -5
v -3 7 -6
v -2 7 -6
v 2 7 -6
v 3 7 -6
v -2 8 4
v 2 8 4
v -3 8 3
v -2 8 3
v 2 8 3
v 3 8 3
v -4 8 1
v -3 8 1
v -2 8 1
v 2 8 1
v 3 8 1
v 4 8 1
v -4 8 -4
v -3 8 -4
v -2 8 -4
v 2 8 -4
v 3 8 -4
v 4 8 -4
v -3 8 -5
v -2 8 -5
v 2 8 -5
v 3 8 -5
v -2 8 -6
v 2 8 -6
v -2 9 3
v 2 9 3
v -1 9 2
v 1 9 2
v -3 9 1
v -2 9 1
v 2 9 1
v 3 9 1
v -2 9 -0
v -1 9 -0
v 1 9 -0
v 2 9 -0
v -3 9 -4
v -2 9 -4
v 2 9 -4
v 3 9 -4
v -2 9 -5
v 2 9 -5
v -1 10 2
v 1 10 2
v -2 10 -0
v -1 10 -0
v 1 10 -0
v 2 10 -0
v -2 10 -4
v 2 10 -4

# faces
f 4/5/1 2/5/1 1/5/1
f 6/5/1 4/5/1 3/5/1
f 8/5/1 6/5/1 5/5/1
f 9/5/1 2/5/1 4/5/1
f 9/5/1 4/5/1 6/5/1
f 9/5/1 6/5/1 8/5/1
f 11/5/1 8/5/1 7/5/1
f 11/5/1 10/5/1 9/5/1
f 11/5/1 9/5/1 8/5/1
f 12/5/1 10/5/1 11/5/1
f 13/5/1 10/5/1 12/5/1
f 14/5/1 10/5/1 13/5/1
f 15/5/1 13/5/1 12/5/1
f 16/5/1 13/5/1 15/5/1
f 19/5/1 18/5/1 17/5/1
f 20/5/1 18/5/1 19/5/1
f 23/5/1 19/5/1 17/5/1
f 24/5/1 19/5/1 23/5/1
f 26/5/1 23/5/1 22/5/1
f 27/5/1 23/5/1 26/5/1
f 29/5/1 26/5/1 25/5/1
f 30/5/1 26/5/1 29/5/1
f 30/5/1 29/5/1 28/5/1
f 31/5/1 26/5/1 30/5/1
f 32/5/1 21/5/1 20/5/1
f 33/5/1 21/5/1 32/5/1
f 35/5/1 30/5/1 28/5/1
f 36/5/1 30/5/1 35/5/1
f 37/5/1 30/5/1 36/5/1
f 40/5/1 34/5/1 33/5/1
f 41/5/1 34/5/1 40/5/1
f 42/5/1 38/5/1 37/5/1
f 42/5/1 37/5/1 36/5/1
f 43/5/1 38/5/1 42/5/1
f 44/5/1 40/5/1 39/5/1
f 45/5/1 40/5/1 44/5/1
f 46/5/1 44/5/1 43/5/1
f 47/5/1 44/5/1 46/5/1
f 50/5/1 49/5/1 48/5/1
f 51/5/1 49/5/1 50/5/1
f 54/5/1 53/5/1 52/5/1
f 55/5/1 53/5/1 54/5/1
f 60/5/1 57/5/1 56/5/1
f 61/5/1 57/5/1 60/5/1
f 64/5/1 59/5/1 58/5/1
f 65/5/1 59/5/1 64/5/1
f 66/5/1 62/5/1 61/5/1
f 67/5/1 62/5/1 66/5/1
f 69/5/1 64/5/1 63/5/1
f 70/5/1 64/5/1 69/5/1
f 71/5/1 69/5/1 68/5/1
f 72/5/1 69/5/1 71/5/1
f 75/5/1 74/5/1 73/5/1
f 76/5/1 74/5/1 75/5/1
f 79/5/1 78/5/1 77/5/1
f 80/5/1 78/5/1 79/5/1
f 84/5/1 82/5/1 81/5/1
f 85/5/1 82/5/1 84/5/1
f 87/5/1 84/5/1 83/5/1
f 88/4/1 85/4/1 84/4/1
f 88/5/1 84/5/1 87/5/1
f 89/4/1 85/4/1 88/4/1
f 91/5/1 87/5/1 86/5/1
f 92/4/1 89/4/1 88/4/1
f 92/5/1 87/5/1 91/5/1
f 92/4/1 90/4/1 89/4/1
f 92/4/1 88/4/1 87/4/1
f 93/4/1 90/4/1 92/4/1
f 94/4/1 90/4/1 93/4/1
f 95/5/2 96/5/2 98/5/2
f 98/5/2 96/5/2 99/5/2
f 97/5/2 98/5/2 101/5/2
f 98/4/2 99/4/2 102/4/2
f 101/5/2 98/5/2 102/5/2
f 102/4/2 99/4/2 103/4/2
f 100/5/2 101/5/2 105/5/2
f 102/4/2 103/4/2 106/4/2
f 105/5/2 101/5/2 106/5/2
f 103/4/2 104/4/2 106/4/2
f 101/4/2 102/4/2 106/4/2
f 106/4/2 104/4/2 107/4/2
f 107/4/2 104/4/2 108/4/2
f 109/5/2 110/5/2 111/5/2
f 111/5/2 110/5/2 112/5/2
f 113/5/2 114/5/2 115/5/2
f 115/5/2 114/5/2 116/5/2
f 117/5/2 118/5/2 119/5/2
f 119/5/2 118/5/2 120/5/2
f 121/5/2 122/5/2 123/5/2
f 123/5/2 122/5/2 124/5/2
f 125/5/2 126/5/2 129/5/2
f 129/5/2 126/5/2 130/5/2
f 127/5/2 128/5/2 133/5/2
f 133/5/2 128/5/2 134/5/2
f 130/5/2 131/5/2 135/5/2
f 135/5/2 131/5/2 136/5/2
f 132/5/2 133/5/2 138/5/2
f 138/5/2 133/5/2 139/5/2
f 137/5/2 138/5/2 140/5/2
f 140/5/2 138/5/2 141/5/2
f 142/5/2 143/5/2 144/5/2
f 144/5/2 143/5/2 145/5/2
f 142/5/2 144/5/2 148/5/2
f 148/5/2 144/5/2 149/5/2
f 147/5/2 148/5/2 151/5/2
f 151/5/2 148/5/2 152/5/2
f 150/5/2 151/5/2 154/5/2
f 154/5/2 151/5/2 155/5/2
f 153/5/2 154/5/2 155/5/2
f 155/5/2 151/5/2 156/5/2
f 145/5/2 146/5/2 157/5/2
f 157/5/2 146/5/2 158/5/2
f 153/5/2 155/5/2 160/5/2
f 160/5/2 155/5/2 161/5/2
f 161/5/2 155/5/2 162/5/2
f 158/5/2 159/5/2 165/5/2
f 165/5/2 159/5/2 166/5/2
f 162/5/2 163/5/2 167/5/2
f 161/5/2 162/5/2 167/5/2
f 167/5/2 163/5/2 168/5/2
f 164/5/2 165/5/2 169/5/2
f 169/5/2 165/5/2 170/5/2
f 168/5/2 169/5/2 171/5/2
f 171/5/2 169/5/2 172/5/2
f 173/5/2 174/5/2 176/5/2
f 175/5/2 176/5/2 178/5/2
f 177/5/2 178/5/2 180/5/2
f 176/5/2 174/5/2 181/5/2
f 178/5/2 176/5/2 181/5/2
f 180/5/2 178/5/2 181/5/2
f 179/5/2 180/5/2 183/5/2
f 181/5/2 182/5/2 183/5/2
f 180/5/2 181/5/2 183/5/2
f 183/5/2 182/5/2 184/5/2
f 184/5/2 182/5/2 185/5/2
f 185/5/2 182/5/2 186/5/2
f 184/5/2 185/5/2 187/5/2
f 187/5/2 185/5/2 188/5/2
f 191/5/3 190/5/3 189/5/3
f 193/5/3 191/5/3 189/5/3
f 193/5/3 192/5/3 191/5/3
f 194/5/3 192/5/3 193/5/3
f 195/5/3 193/5/3 189/5/3
f 196/5/3 193/5/3 195/5/3
f 199/5/3 198/5/3 197/5/3
f 200/5/3 198/5/3 199/5/3
f 203/5/3 201/5/3 200/5/3
f 204/5/3 201/5/3 203/5/3
f 205/5/3 203/5/3 202/5/3
f 206/5/3 203/5/3 205/5/3
f 211/5/3 208/5/3 207/5/3
f 212/5/3 208/5/3 211/5/3
f 213/5/3 210/5/3 209/5/3
f 214/5/3 210/5/3 213/5/3
f 217/5/3 216/5/3 215/5/3
f 218/5/3 216/5/3 217/5/3
f 221/5/3 220/5/3 219/5/3
f 222/5/3 220/5/3 221/5/3
f 225/5/3 224/5/3 223/5/3
f 226/5/3 224/5/3 225/5/3
f 232/5/3 228/5/3 227/5/3
f 233/5/3 228/5/3 232/5/3
f 234/5/3 230/5/3 229/5/3
f 235/5/3 230/5/3 234/5/3
f 237/5/3 232/5/3 231/5/3
f 238/5/3 232/5/3 237/5/3
f 239/5/3 236/5/3 235/5/3
f 240/5/3 236/5/3 239/5/3
f 245/5/3 242/5/3 241/5/3
f 246/5/3 242/5/3 245/5/3
f 249/5/3 244/5/3 243/5/3
f 250/5/3 244/5/3 249/5/3
f 251/5/3 247/5/3 246/5/3
f 252/5/3 247/5/3 251/5/3
f 253/5/3 249/5/3 248/5/3
f 254/5/3 249/5/3 253/5/3
f 258/5/3 256/5/3 255/5/3
f 259/5/3 256/5/3 258/5/3
f 260/5/3 258/5/3 257/5/3
f 261/5/3 258/5/3 260/5/3
f 264/5/3 263/5/3 262/5/3
f 265/5/3 263/5/3 264/5/3
f 270/5/3 267/5/3 266/5/3
f 271/5/3 267/5/3 270/5/3
f 272/5/3 269/5/3 268/5/3
f 273/5/3 269/5/3 272/5/3
f 275/5/3 274/5/3 273/5/3
f 276/5/3 274/5/3 275/5/3
f 280/4/3 278/4/3 277/4/3
f 280/4/3 279/4/3 278/4/3
f 281/4/3 279/4/3 280/4/3
f 282/4/3 279/4/3 281/4/3
f 285/5/3 284/5/3 283/5/3
f 286/5/3 284/5/3 285/5/3
f 289/4/3 288/4/3 287/4/3
f 290/4/3 288/4/3 289/4/3
f 293/5/3 292/5/3 291/5/3
f 294/5/3 292/5/3 293/5/3
f 295/4/4 296/4/4 297/4/4
f 297/4/4 296/4/4 298/4/4
f 299/5/4 300/5/4 304/5/4
f 304/5/4 300/5/4 305/5/4
f 301/5/4 302/5/4 306/5/4
f 306/5/4 302/5/4 307/5/4
f 303/5/4 304/5/4 309/5/4
f 309/5/4 304/5/4 310/5/4
f 307/5/4 308/5/4 311/5/4
f 311/5/4 308/5/4 312/5/4
f 303/5/4 309/5/4 314/5/4
f 312/5/4 313/5/4 317/5/4
f 317/5/4 313/5/4 318/5/4
f 314/5/4 315/5/4 319/5/4
f 303/5/4 314/5/4 319/5/4
f 319/5/4 315/5/4 320/5/4
f 316/5/4 317/5/4 323/5/4
f 323/5/4 317/5/4 324/5/4
f 320/5/4 321/5/4 325/5/4
f 325/5/4 321/5/4 326/5/4
f 322/5/4 323/5/4 327/5/4
f 327/5/4 323/5/4 328/5/4
f 329/5/4 330/5/4 332/5/4
f 332/5/4 330/5/4 333/5/4
f 331/5/4 332/5/4 336/5/4
f 336/5/4 332/5/4 337/5/4
f 337/5/4 332/5/4 338/5/4
f 333/5/4 334/5/4 339/5/4
f 339/5/4 334/5/4 340/5/4
f 335/5/4 336/5/4 342/5/4
f 336/5/4 337/5/4 342/5/4
f 342/5/4 337/5/4 343/5/4
f 335/5/4 342/5/4 344/5/4
f 335/5/4 344/5/4 346/5/4
f 344/5/4 345/5/4 346/5/4
f 346/5/4 345/5/4 347/5/4
f 347/5/4 345/5/4 348/5/4
f 340/5/4 341/5/4 351/5/4
f 351/5/4 341/5/4 352/5/4
f 348/5/4 349/5/4 353/5/4
f 347/5/4 348/5/4 353/5/4
f 353/5/4 349/5/4 354/5/4
f 350/5/4 351/5/4 355/5/4
f 355/5/4 351/5/4 356/5/4
f 354/5/4 355/5/4 357/5/4
f 357/5/4 355/5/4 358/5/4
f 359/5/4 360/5/4 362/5/4
f 362/5/4 360/5/4 363/5/4
f 361/5/4 362/5/4 366/5/4
f 363/5/4 364/5/4 366/5/4
f 362/5/4 363/5/4 366/5/4
f 365/5/4 366/5/4 367/5/4
f 366/5/4 364/5/4 368/5/4
f 367/5/4 366/5/4 368/5/4
f 368/5/4 364/5/4 369/5/4
f 369/5/4 364/5/4 370/5/4
f 370/5/4 364/5/4 371/5/4
f 371/5/4 364/5/4 372/5/4
f 370/5/4 371/5/4 373/5/4
f 373/5/4 371/5/4 374/5/4
f 379/5/5 376/5/5 375/5/5
f 380/5/5 378/5/5 377/5/5
f 381/5/5 379/5/5 375/5/5
f 381/4/5 380/4/5 379/4/5
f 382/5/5 378/5/5 380/5/5
f 382/4/5 380/4/5 381/4/5
f 383/5/5 381/5/5 375/5/5
f 383/5/5 382/5/5 381/5/5
f 384/5/5 378/5/5 382/5/5
f 384/5/5 382/5/5 383/5/5
f 387/5/5 386/5/5 385/5/5
f 388/5/5 386/5/5 387/5/5
f 393/5/5 390/5/5 389/5/5
f 394/5/5 390/5/5 393/5/5
f 397/5/5 392/5/5 391/5/5
f 398/5/5 392/5/5 397/5/5
f 399/5/5 395/5/5 394/5/5
f 400/5/5 395/5/5 399/5/5
f 401/5/5 397/5/5 396/5/5
f 402/5/5 397/5/5 401/5/5
f 408/5/5 404/5/5 403/5/5
f 409/5/5 404/5/5 408/5/5
f 410/5/5 406/5/5 405/5/5
f 411/5/5 406/5/5 410/5/5
f 413/5/5 408/5/5 407/5/5
f 414/5/5 408/5/5 413/5/5
f 415/5/5 412/5/5 411/5/5
f 416/5/5 412/5/5 415/5/5
f 419/5/5 418/5/5 417/5/5
f 420/5/5 418/5/5 419/5/5
f 426/5/5 422/5/5 421/5/5
f 427/5/5 422/5/5 426/5/5
f 428/5/5 424/5/5 423/5/5
f 429/5/5 424/5/5 428/5/5
f 431/5/5 426/5/5 425/5/5
f 432/5/5 426/5/5 431/5/5
f 433/5/5 430/5/5 429/5/5
f 434/5/5 430/5/5 433/5/5
f 439/5/5 436/5/5 435/5/5
f 440/5/5 436/5/5 439/5/5
f 441/5/5 438/5/5 437/5/5
f 442/5/5 438/5/5 441/5/5
f 445/5/5 444/5/5 443/5/5
f 446/5/5 444/5/5 445/5/5
f 447/5/5 444/5/5 446/5/5
f 448/5/5 444/5/5 447/5/5
f 449/4/5 447/4/5 446/4/5
f 450/4/5 447/4/5 449/4/5
f 455/5/5 452/5/5 451/5/5
f 456/5/5 452/5/5 455/5/5
f 459/5/5 454/5/5 453/5/5
f 460/5/5 454/5/5 459/5/5
f 461/4/5 458/4/5 457/4/5
f 462/4/5 458/4/5 461/4/5
f 467/5/5 464/5/5 463/5/5
f 468/5/5 464/5/5 467/5/5
f 471/5/5 466/5/5 465/5/5
f 472/5/5 466/5/5 471/5/5
f 473/5/5 469/5/5 468/5/5
f 474/5/5 469/5/5 473/5/5
f 475/5/5 471/5/5 470/5/5
f 476/5/5 471/5/5 475/5/5
f 477/4/6 478/4/6 479/4/6
f 479/4/6 478/4/6 480/4/6
f 481/5/6 482/5/6 485/5/6
f 485/5/6 482/5/6 486/5/6
f 483/5/6 484/5/6 487/5/6
f 487/5/6 484/5/6 488/5/6
f 489/5/6 490/5/6 493/5/6
f 493/5/6 490/5/6 494/5/6
f 491/5/6 492/5/6 495/5/6
f 495/5/6 492/5/6 496/5/6
f 497/5/6 498/5/6 501/5/6
f 501/5/6 498/5/6 502/5/6
f 499/5/6 500/5/6 505/5/6
f 505/5/6 500/5/6 506/5/6
f 502/5/6 503/5/6 507/5/6
f 507/5/6 503/5/6 508/5/6
f 504/5/6 505/5/6 509/5/6
f 509/5/6 505/5/6 510/5/6
f 511/5/6 512/5/6 514/5/6
f 514/5/6 512/5/6 515/5/6
f 513/5/6 514/5/6 518/5/6
f 518/5/6 514/5/6 519/5/6
f 515/5/6 516/5/6 520/5/6
f 520/5/6 516/5/6 521/5/6
f 517/5/6 518/5/6 523/5/6
f 523/5/6 518/5/6 524/5/6
f 521/5/6 522/5/6 527/5/6
f 527/5/6 522/5/6 528/5/6
f 524/5/6 525/5/6 529/5/6
f 529/5/6 525/5/6 530/5/6
f 526/5/6 527/5/6 531/5/6
f 531/5/6 527/5/6 532/5/6
f 530/5/6 531/5/6 533/5/6
f 533/5/6 531/5/6 534/5/6
f 535/5/6 536/5/6 537/5/6
f 537/5/6 536/5/6 538/5/6
f 535/5/6 537/5/6 540/5/6
f 538/5/6 536/5/6 541/5/6
f 539/5/6 540/5/6 543/5/6
f 540/5/6 537/5/6 543/5/6
f 543/5/6 537/5/6 544/5/6
f 541/5/6 542/5/6 545/5/6
f 538/5/6 541/5/6 545/5/6
f 545/5/6 542/5/6 546/5/6
f 539/5/6 543/5/6 547/5/6
f 547/5/6 543/5/6 548/5/6
f 546/5/6 542/5/6 549/5/6
f 549/5/6 542/5/6 550/5/6
f 548/5/6 549/5/6 551/5/6
f 551/5/6 549/5/6 552/5/6
f 553/5/6 554/5/6 556/5/6
f 556/5/6 554/5/6 557/5/6
f 555/5/6 556/5/6 559/5/6
f 557/5/6 558/5/6 559/5/6
f 556/5/6 557/5/6 559/5/6
f 559/5/6 558/5/6 560/5/6
