# MagicaVoxel @ ephtracy

# material
mtllib helmet-3.mtl
usemtl palette

# normals
vn -1 0 0
vn 1 0 0
vn 0 0 1
vn 0 0 -1
vn 0 -1 0
vn 0 1 0

# texcoords
vt 0.0175781 0.5
vt 0.0332031 0.5
vt 0.537109 0.5
vt 0.845703 0.5
vt 0.958984 0.5
vt 0.970703 0.5
vt 0.986328 0.5
vt 0.994141 0.5

# verts
v -5 4 -1
v -5 4 -3
v -5 5 -0
v -5 5 -1
v -5 8 -0
v -5 8 -3
v -4 2 -3
v -4 2 -4
v -4 3 -0
v -4 3 -3
v -4 4 1
v -4 4 -0
v -4 4 -1
v -4 4 -3
v -4 5 -0
v -4 5 -1
v -4 6 2
v -4 6 1
v -4 6 -4
v -4 6 -5
v -4 7 2
v -4 7 1
v -4 7 -4
v -4 7 -5
v -4 8 1
v -4 8 -0
v -4 8 -3
v -4 8 -4
v -3 0 -0
v -3 0 -4
v -3 2 -3
v -3 2 -4
v -3 2 -5
v -3 3 1
v -3 3 -0
v -3 3 -3
v -3 4 2
v -3 4 1
v -3 4 -0
v -3 5 4
v -3 5 2
v -3 6 2
v -3 6 1
v -3 6 -4
v -3 6 -5
v -3 6 -6
v -3 7 4
v -3 7 3
v -3 7 2
v -3 7 1
v -3 7 -4
v -3 7 -5
v -3 7 -6
v -3 8 3
v -3 8 1
v -3 8 -4
v -3 8 -5
v -3 9 1
v -3 9 -4
v -2 1 -4
v -2 1 -5
v -2 2 -4
v -2 2 -5
v -2 4 -5
v -2 4 -6
v -2 6 -5
v -2 6 -6
v -2 7 4
v -2 7 3
v -2 7 -5
v -2 7 -6
v -2 8 4
v -2 8 3
v -2 8 1
v -2 8 -4
v -2 8 -5
v -2 8 -6
v -2 9 3
v -2 9 1
v -2 9 -0
v -2 9 -4
v -2 9 -5
v -2 10 -0
v -2 10 -4
v -1 3 -5
v -1 3 -6
v -1 4 -5
v -1 4 -6
v -1 4 -7
v -1 5 5
v -1 5 4
v -1 5 -7
v -1 5 -8
v -1 6 -8
v -1 6 -9
v -1 7 5
v -1 7 4
v -1 8 -5
v -1 8 -6
v -1 9 3
v -1 9 2
v -1 9 -0
v -1 9 -4
v -1 9 -5
v -1 10 2
v -1 10 -0
v -1 10 -4
v -1 11 3
v -1 11 1
v -1 11 -4
v -1 11 -8
v -1 11 -9
v -1 12 1
v -1 12 -0
v -1 12 -7
v -1 12 -8
v -1 13 -0
v -1 13 -1
v -1 13 -6
v -1 13 -7
v -1 14 -1
v -1 14 -6
v 2 0 -0
v 2 0 -2
v 2 3 1
v 2 3 -0
v 2 3 -2
v 2 4 2
v 2 4 1
v 2 4 -0
v 2 4 -2
v 2 4 -3
v 2 5 2
v 2 5 1
v 2 6 1
v 2 6 -3
v -2 0 -0
v -2 0 -2
v -2 3 1
v -2 3 -0
v -2 3 -2
v -2 4 2
v -2 4 1
v -2 4 -0
v -2 4 -2
v -2 4 -3
v -2 5 2
v -2 5 1
v -2 6 1
v -2 6 -3
v 1 3 -5
v 1 3 -6
v 1 4 -5
v 1 4 -6
v 1 4 -7
v 1 5 5
v 1 5 4
v 1 5 -7
v 1 5 -8
v 1 6 -8
v 1 6 -9
v 1 7 5
v 1 7 4
v 1 8 -5
v 1 8 -6
v 1 9 3
v 1 9 2
v 1 9 -0
v 1 9 -4
v 1 9 -5
v 1 10 2
v 1 10 -0
v 1 10 -4
v 1 11 3
v 1 11 1
v 1 11 -4
v 1 11 -8
v 1 11 -9
v 1 12 1
v 1 12 -0
v 1 12 -7
v 1 12 -8
v 1 13 -0
v 1 13 -1
v 1 13 -6
v 1 13 -7
v 1 14 -1
v 1 14 -6
v 2 1 -4
v 2 1 -5
v 2 2 -4
v 2 2 -5
v 2 4 -5
v 2 4 -6
v 2 6 -5
v 2 6 -6
v 2 7 4
v 2 7 3
v 2 7 -5
v 2 7 -6
v 2 8 4
v 2 8 3
v 2 8 1
v 2 8 -4
v 2 8 -5
v 2 8 -6
v 2 9 3
v 2 9 1
v 2 9 -0
v 2 9 -4
v 2 9 -5
v 2 10 -0
v 2 10 -4
v 3 0 -0
v 3 0 -4
v 3 2 -3
v 3 2 -4
v 3 2 -5
v 3 3 1
v 3 3 -0
v 3 3 -3
v 3 4 2
v 3 4 1
v 3 4 -0
v 3 5 4
v 3 5 2
v 3 6 2
v 3 6 1
v 3 6 -4
v 3 6 -5
v 3 6 -6
v 3 7 4
v 3 7 3
v 3 7 2
v 3 7 1
v 3 7 -4
v 3 7 -5
v 3 7 -6
v 3 8 3
v 3 8 1
v 3 8 -4
v 3 8 -5
v 3 9 1
v 3 9 -4
v 4 2 -3
v 4 2 -4
v 4 3 -0
v 4 3 -3
v 4 4 1
v 4 4 -0
v 4 4 -1
v 4 4 -3
v 4 5 -0
v 4 5 -1
v 4 6 2
v 4 6 1
v 4 6 -4
v 4 6 -5
v 4 7 2
v 4 7 1
v 4 7 -4
v 4 7 -5
v 4 8 1
v 4 8 -0
v 4 8 -3
v 4 8 -4
v 5 4 -1
v 5 4 -3
v 5 5 -0
v 5 5 -1
v 5 8 -0
v 5 8 -3
v -1 5 5
v -1 7 5
v 1 5 5
v 1 7 5
v -3 5 4
v -3 7 4
v -2 7 4
v -2 8 4
v -1 5 4
v -1 7 4
v 1 5 4
v 1 7 4
v 2 7 4
v 2 8 4
v 3 5 4
v 3 7 4
v -3 7 3
v -3 8 3
v -2 7 3
v -2 8 3
v -2 9 3
v -1 9 3
v -1 11 3
v 1 9 3
v 1 11 3
v 2 7 3
v 2 8 3
v 2 9 3
v 3 7 3
v 3 8 3
v -4 6 2
v -4 7 2
v -3 4 2
v -3 5 2
v -3 6 2
v -3 7 2
v -2 4 2
v -2 5 2
v 2 4 2
v 2 5 2
v 3 4 2
v 3 5 2
v 3 6 2
v 3 7 2
v 4 6 2
v 4 7 2
v -4 4 1
v -4 6 1
v -4 7 1
v -4 8 1
v -3 3 1
v -3 4 1
v -3 6 1
v -3 7 1
v -3 8 1
v -3 9 1
v -2 3 1
v -2 4 1
v -2 8 1
v -2 9 1
v -1 11 1
v -1 12 1
v 1 11 1
v 1 12 1
v 2 3 1
v 2 4 1
v 2 8 1
v 2 9 1
v 3 3 1
v 3 4 1
v 3 6 1
v 3 7 1
v 3 8 1
v 3 9 1
v 4 4 1
v 4 6 1
v 4 7 1
v 4 8 1
v -5 5 -0
v -5 8 -0
v -4 3 -0
v -4 4 -0
v -4 5 -0
v -4 8 -0
v -3 0 -0
v -3 3 -0
v -3 4 -0
v -2 0 -0
v -2 3 -0
v -2 9 -0
v -2 10 -0
v -1 9 -0
v -1 10 -0
v -1 12 -0
v -1 13 -0
v 1 9 -0
v 1 10 -0
v 1 12 -0
v 1 13 -0
v 2 0 -0
v 2 3 -0
v 2 9 -0
v 2 10 -0
v 3 0 -0
v 3 3 -0
v 3 4 -0
v 4 3 -0
v 4 4 -0
v 4 5 -0
v 4 8 -0
v 5 5 -0
v 5 8 -0
v -5 4 -1
v -5 5 -1
v -4 4 -1
v -4 5 -1
v -1 13 -1
v -1 14 -1
v 1 13 -1
v 1 14 -1
v 4 4 -1
v 4 5 -1
v 5 4 -1
v 5 5 -1
v -2 0 -2
v -2 3 -2
v -2 4 -2
v 2 0 -2
v 2 3 -2
v 2 4 -2
v -4 2 -3
v -4 3 -3
v -3 2 -3
v -3 3 -3
v -2 4 -3
v -2 6 -3
v 2 4 -3
v 2 6 -3
v 3 2 -3
v 3 3 -3
v 4 2 -3
v 4 3 -3
v -2 5 1
v -2 6 1
v 2 5 1
v 2 6 1
v -5 4 -3
v -5 8 -3
v -4 4 -3
v -4 8 -3
v 4 4 -3
v 4 8 -3
v 5 4 -3
v 5 8 -3
v -4 2 -4
v -4 6 -4
v -4 7 -4
v -4 8 -4
v -3 0 -4
v -3 2 -4
v -3 6 -4
v -3 7 -4
v -3 8 -4
v -3 9 -4
v -2 1 -4
v -2 2 -4
v -2 8 -4
v -2 9 -4
v -2 10 -4
v -1 9 -4
v -1 10 -4
v 1 9 -4
v 1 10 -4
v 2 1 -4
v 2 2 -4
v 2 8 -4
v 2 9 -4
v 2 10 -4
v 3 0 -4
v 3 2 -4
v 3 6 -4
v 3 7 -4
v 3 8 -4
v 3 9 -4
v 4 2 -4
v 4 6 -4
v 4 7 -4
v 4 8 -4
v -4 6 -5
v -4 7 -5
v -3 2 -5
v -3 6 -5
v -3 7 -5
v -3 8 -5
v -2 1 -5
v -2 2 -5
v -2 4 -5
v -2 6 -5
v -2 7 -5
v -2 8 -5
v -2 9 -5
v -1 3 -5
v -1 4 -5
v -1 8 -5
v -1 9 -5
v 1 3 -5
v 1 4 -5
v 1 8 -5
v 1 9 -5
v 2 1 -5
v 2 2 -5
v 2 4 -5
v 2 6 -5
v 2 7 -5
v 2 8 -5
v 2 9 -5
v 3 2 -5
v 3 6 -5
v 3 7 -5
v 3 8 -5
v 4 6 -5
v 4 7 -5
v -3 6 -6
v -3 7 -6
v -2 4 -6
v -2 6 -6
v -2 7 -6
v -2 8 -6
v -1 3 -6
v -1 4 -6
v -1 8 -6
v -1 13 -6
v -1 14 -6
v 1 3 -6
v 1 4 -6
v 1 8 -6
v 1 13 -6
v 1 14 -6
v 2 4 -6
v 2 6 -6
v 2 7 -6
v 2 8 -6
v 3 6 -6
v 3 7 -6
v -1 4 -7
v -1 5 -7
v -1 12 -7
v -1 13 -7
v 1 4 -7
v 1 5 -7
v 1 12 -7
v 1 13 -7
v -1 5 -8
v -1 6 -8
v -1 11 -8
v -1 12 -8
v 1 5 -8
v 1 6 -8
v 1 11 -8
v 1 12 -8
v -1 6 -9
v -1 11 -9
v 1 6 -9
v 1 11 -9
v -3 0 -0
v -2 0 -0
v 2 0 -0
v 3 0 -0
v -2 0 -2
v 2 0 -2
v -2 0 -3
v 2 0 -3
v -3 0 -4
v 3 0 -4
v -2 1 -4
v 2 1 -4
v -2 1 -5
v 2 1 -5
v -4 2 -3
v -3 2 -3
v 3 2 -3
v 4 2 -3
v -4 2 -4
v -3 2 -4
v -2 2 -4
v 2 2 -4
v 3 2 -4
v 4 2 -4
v -3 2 -5
v -2 2 -5
v 2 2 -5
v 3 2 -5
v -3 3 1
v -2 3 1
v 2 3 1
v 3 3 1
v -4 3 -0
v -3 3 -0
v -2 3 -0
v 2 3 -0
v 3 3 -0
v 4 3 -0
v -4 3 -3
v -3 3 -3
v 3 3 -3
v 4 3 -3
v -1 3 -5
v 1 3 -5
v -1 3 -6
v 1 3 -6
v -3 4 2
v -2 4 2
v 2 4 2
v 3 4 2
v -4 4 1
v -3 4 1
v -2 4 1
v 2 4 1
v 3 4 1
v 4 4 1
v -4 4 -0
v -3 4 -0
v 3 4 -0
v 4 4 -0
v -5 4 -1
v -4 4 -1
v 4 4 -1
v 5 4 -1
v -5 4 -3
v -4 4 -3
v 4 4 -3
v 5 4 -3
v -2 4 -5
v -1 4 -5
v 1 4 -5
v 2 4 -5
v -2 4 -6
v -1 4 -6
v 1 4 -6
v 2 4 -6
v -1 4 -7
v 1 4 -7
v -1 5 5
v 1 5 5
v -3 5 4
v -1 5 4
v 1 5 4
v 3 5 4
v -3 5 2
v -2 5 2
v 2 5 2
v 3 5 2
v -2 5 1
v 2 5 1
v -5 5 -0
v -4 5 -0
v 4 5 -0
v 5 5 -0
v -5 5 -1
v -4 5 -1
v 4 5 -1
v 5 5 -1
v -1 5 -7
v 1 5 -7
v -1 5 -8
v 1 5 -8
v -4 6 2
v -3 6 2
v 3 6 2
v 4 6 2
v -4 6 1
v -3 6 1
v -2 6 1
v 2 6 1
v 3 6 1
v 4 6 1
v -2 6 -3
v 2 6 -3
v -4 6 -4
v -3 6 -4
v 3 6 -4
v 4 6 -4
v -4 6 -5
v -3 6 -5
v -2 6 -5
v 2 6 -5
v 3 6 -5
v 4 6 -5
v -3 6 -6
v -2 6 -6
v 2 6 -6
v 3 6 -6
v -1 6 -8
v 1 6 -8
v -1 6 -9
v 1 6 -9
v -2 4 -2
v 2 4 -2
v -2 4 -3
v 2 4 -3
v -1 7 5
v 1 7 5
v -3 7 4
v -2 7 4
v -1 7 4
v 1 7 4
v 2 7 4
v 3 7 4
v -3 7 3
v -2 7 3
v 2 7 3
v 3 7 3
v -4 7 2
v -3 7 2
v 3 7 2
v 4 7 2
v -4 7 1
v -3 7 1
v 3 7 1
v 4 7 1
v -4 7 -4
v -3 7 -4
v 3 7 -4
v 4 7 -4
v -4 7 -5
v -3 7 -5
v -2 7 -5
v 2 7 -5
v 3 7 -5
v 4 7 -5
v -3 7 -6
v -2 7 -6
v 2 7 -6
v 3 7 -6
v -2 8 4
v 2 8 4
v -3 8 3
v -2 8 3
v 2 8 3
v 3 8 3
v -4 8 1
v -3 8 1
v -2 8 1
v 2 8 1
v 3 8 1
v 4 8 1
v -5 8 -0
v -4 8 -0
v 4 8 -0
v 5 8 -0
v -5 8 -3
v -4 8 -3
v 4 8 -3
v 5 8 -3
v -4 8 -4
v -3 8 -4
v -2 8 -4
v 2 8 -4
v 3 8 -4
v 4 8 -4
v -3 8 -5
v -2 8 -5
v -1 8 -5
v 1 8 -5
v 2 8 -5
v 3 8 -5
v -2 8 -6
v -1 8 -6
v 1 8 -6
v 2 8 -6
v -2 9 3
v -1 9 3
v 1 9 3
v 2 9 3
v -1 9 2
v 1 9 2
v -3 9 1
v -2 9 1
v 2 9 1
v 3 9 1
v -2 9 -0
v -1 9 -0
v 1 9 -0
v 2 9 -0
v -3 9 -4
v -2 9 -4
v -1 9 -4
v 1 9 -4
v 2 9 -4
v 3 9 -4
v -2 9 -5
v -1 9 -5
v 1 9 -5
v 2 9 -5
v -2 10 -0
v -1 10 -0
v 1 10 -0
v 2 10 -0
v -2 10 -4
v -1 10 -4
v 1 10 -4
v 2 10 -4
v -1 11 3
v 1 11 3
v -1 11 1
v 1 11 1
v -1 11 -8
v 1 11 -8
v -1 11 -9
v 1 11 -9
v -1 12 1
v 1 12 1
v -1 12 -0
v 1 12 -0
v -1 12 -7
v 1 12 -7
v -1 12 -8
v 1 12 -8
v -1 13 -0
v 1 13 -0
v -1 13 -1
v 1 13 -1
v -1 13 -6
v 1 13 -6
v -1 13 -7
v 1 13 -7
v -1 14 -1
v 1 14 -1
v -1 14 -6
v 1 14 -6

# faces
f 4/5/1 2/5/1 1/5/1
f 5/5/1 4/5/1 3/5/1
f 6/5/1 2/5/1 4/5/1
f 6/5/1 4/5/1 5/5/1
f 10/7/1 8/7/1 7/7/1
f 12/7/1 10/7/1 9/7/1
f 13/7/1 10/7/1 12/7/1
f 14/7/1 8/7/1 10/7/1
f 14/7/1 10/7/1 13/7/1
f 15/7/1 13/7/1 12/7/1
f 15/7/1 12/7/1 11/7/1
f 16/7/1 13/7/1 15/7/1
f 18/7/1 15/7/1 11/7/1
f 19/7/1 8/7/1 14/7/1
f 21/7/1 18/7/1 17/7/1
f 22/7/1 15/7/1 18/7/1
f 22/7/1 18/7/1 21/7/1
f 23/7/1 20/7/1 19/7/1
f 23/7/1 19/7/1 14/7/1
f 24/7/1 20/7/1 23/7/1
f 25/7/1 15/7/1 22/7/1
f 26/7/1 15/7/1 25/7/1
f 27/7/1 23/7/1 14/7/1
f 28/7/1 23/7/1 27/7/1
f 31/7/1 30/7/1 29/7/1
f 32/7/1 30/7/1 31/7/1
f 35/7/1 31/7/1 29/7/1
f 36/7/1 31/7/1 35/7/1
f 38/7/1 35/7/1 34/7/1
f 39/7/1 35/7/1 38/7/1
f 41/7/1 38/7/1 37/7/1
f 42/7/1 38/7/1 41/7/1
f 42/7/1 41/7/1 40/7/1
f 43/7/1 38/7/1 42/7/1
f 44/7/1 33/7/1 32/7/1
f 45/7/1 33/7/1 44/7/1
f 47/7/1 42/7/1 40/7/1
f 48/7/1 42/7/1 47/7/1
f 49/7/1 42/7/1 48/7/1
f 52/7/1 46/7/1 45/7/1
f 53/7/1 46/7/1 52/7/1
f 54/7/1 50/7/1 49/7/1
f 54/7/1 49/7/1 48/7/1
f 55/7/1 50/7/1 54/7/1
f 56/7/1 52/7/1 51/7/1
f 57/7/1 52/7/1 56/7/1
f 58/7/1 56/7/1 55/7/1
f 59/7/1 56/7/1 58/7/1
f 62/7/1 61/7/1 60/7/1
f 63/7/1 61/7/1 62/7/1
f 66/7/1 65/7/1 64/7/1
f 67/7/1 65/7/1 66/7/1
f 72/7/1 69/7/1 68/7/1
f 73/7/1 69/7/1 72/7/1
f 76/7/1 71/7/1 70/7/1
f 77/7/1 71/7/1 76/7/1
f 78/7/1 74/7/1 73/7/1
f 79/7/1 74/7/1 78/7/1
f 81/7/1 76/7/1 75/7/1
f 82/7/1 76/7/1 81/7/1
f 83/7/1 81/7/1 80/7/1
f 84/7/1 81/7/1 83/7/1
f 87/7/1 86/7/1 85/7/1
f 88/7/1 86/7/1 87/7/1
f 92/4/1 89/4/1 88/4/1
f 94/4/1 93/4/1 92/4/1
f 96/5/1 91/5/1 90/5/1
f 97/5/1 91/5/1 96/5/1
f 99/4/1 95/4/1 94/4/1
f 99/4/1 92/4/1 88/4/1
f 99/4/1 94/4/1 92/4/1
f 104/4/1 99/4/1 98/4/1
f 105/7/1 102/7/1 101/7/1
f 105/5/1 101/5/1 100/5/1
f 106/7/1 102/7/1 105/7/1
f 107/4/1 104/4/1 103/4/1
f 108/5/1 106/5/1 105/5/1
f 108/5/1 107/5/1 106/5/1
f 108/5/1 105/5/1 100/5/1
f 109/5/1 107/5/1 108/5/1
f 110/4/1 104/4/1 107/4/1
f 110/5/1 107/5/1 109/5/1
f 111/4/1 95/4/1 99/4/1
f 111/4/1 104/4/1 110/4/1
f 111/4/1 99/4/1 104/4/1
f 112/4/1 95/4/1 111/4/1
f 113/4/1 110/4/1 109/4/1
f 113/4/1 111/4/1 110/4/1
f 114/4/1 111/4/1 113/4/1
f 115/4/1 111/4/1 114/4/1
f 116/4/1 111/4/1 115/4/1
f 117/4/1 115/4/1 114/4/1
f 118/4/1 115/4/1 117/4/1
f 119/4/1 115/4/1 118/4/1
f 120/4/1 115/4/1 119/4/1
f 121/4/1 119/4/1 118/4/1
f 122/4/1 119/4/1 121/4/1
f 126/7/1 124/7/1 123/7/1
f 127/7/1 124/7/1 126/7/1
f 129/7/1 126/7/1 125/7/1
f 130/6/1 127/6/1 126/6/1
f 130/7/1 126/7/1 129/7/1
f 131/6/1 127/6/1 130/6/1
f 133/7/1 129/7/1 128/7/1
f 134/6/1 131/6/1 130/6/1
f 134/7/1 129/7/1 133/7/1
f 134/6/1 132/6/1 131/6/1
f 134/6/1 130/6/1 129/6/1
f 135/6/1 132/6/1 134/6/1
f 136/6/1 132/6/1 135/6/1
f 137/7/2 138/7/2 140/7/2
f 140/7/2 138/7/2 141/7/2
f 139/7/2 140/7/2 143/7/2
f 140/6/2 141/6/2 144/6/2
f 143/7/2 140/7/2 144/7/2
f 144/6/2 141/6/2 145/6/2
f 142/7/2 143/7/2 147/7/2
f 144/6/2 145/6/2 148/6/2
f 147/7/2 143/7/2 148/7/2
f 145/6/2 146/6/2 148/6/2
f 143/6/2 144/6/2 148/6/2
f 148/6/2 146/6/2 149/6/2
f 149/6/2 146/6/2 150/6/2
f 151/7/2 152/7/2 153/7/2
f 153/7/2 152/7/2 154/7/2
f 154/4/2 155/4/2 158/4/2
f 158/4/2 159/4/2 160/4/2
f 156/5/2 157/5/2 162/5/2
f 162/5/2 157/5/2 163/5/2
f 160/4/2 161/4/2 165/4/2
f 154/4/2 158/4/2 165/4/2
f 158/4/2 160/4/2 165/4/2
f 164/4/2 165/4/2 170/4/2
f 167/7/2 168/7/2 171/7/2
f 166/5/2 167/5/2 171/5/2
f 171/7/2 168/7/2 172/7/2
f 169/4/2 170/4/2 173/4/2
f 171/5/2 172/5/2 174/5/2
f 172/5/2 173/5/2 174/5/2
f 166/5/2 171/5/2 174/5/2
f 174/5/2 173/5/2 175/5/2
f 173/4/2 170/4/2 176/4/2
f 175/5/2 173/5/2 176/5/2
f 165/4/2 161/4/2 177/4/2
f 176/4/2 170/4/2 177/4/2
f 170/4/2 165/4/2 177/4/2
f 177/4/2 161/4/2 178/4/2
f 175/4/2 176/4/2 179/4/2
f 176/4/2 177/4/2 179/4/2
f 179/4/2 177/4/2 180/4/2
f 180/4/2 177/4/2 181/4/2
f 181/4/2 177/4/2 182/4/2
f 180/4/2 181/4/2 183/4/2
f 183/4/2 181/4/2 184/4/2
f 184/4/2 181/4/2 185/4/2
f 185/4/2 181/4/2 186/4/2
f 184/4/2 185/4/2 187/4/2
f 187/4/2 185/4/2 188/4/2
f 189/7/2 190/7/2 191/7/2
f 191/7/2 190/7/2 192/7/2
f 193/7/2 194/7/2 195/7/2
f 195/7/2 194/7/2 196/7/2
f 197/7/2 198/7/2 201/7/2
f 201/7/2 198/7/2 202/7/2
f 199/7/2 200/7/2 205/7/2
f 205/7/2 200/7/2 206/7/2
f 202/7/2 203/7/2 207/7/2
f 207/7/2 203/7/2 208/7/2
f 204/7/2 205/7/2 210/7/2
f 210/7/2 205/7/2 211/7/2
f 209/7/2 210/7/2 212/7/2
f 212/7/2 210/7/2 213/7/2
f 214/7/2 215/7/2 216/7/2
f 216/7/2 215/7/2 217/7/2
f 214/7/2 216/7/2 220/7/2
f 220/7/2 216/7/2 221/7/2
f 219/7/2 220/7/2 223/7/2
f 223/7/2 220/7/2 224/7/2
f 222/7/2 223/7/2 226/7/2
f 226/7/2 223/7/2 227/7/2
f 225/7/2 226/7/2 227/7/2
f 227/7/2 223/7/2 228/7/2
f 217/7/2 218/7/2 229/7/2
f 229/7/2 218/7/2 230/7/2
f 225/7/2 227/7/2 232/7/2
f 232/7/2 227/7/2 233/7/2
f 233/7/2 227/7/2 234/7/2
f 230/7/2 231/7/2 237/7/2
f 237/7/2 231/7/2 238/7/2
f 234/7/2 235/7/2 239/7/2
f 233/7/2 234/7/2 239/7/2
f 239/7/2 235/7/2 240/7/2
f 236/7/2 237/7/2 241/7/2
f 241/7/2 237/7/2 242/7/2
f 240/7/2 241/7/2 243/7/2
f 243/7/2 241/7/2 244/7/2
f 245/7/2 246/7/2 248/7/2
f 247/7/2 248/7/2 250/7/2
f 250/7/2 248/7/2 251/7/2
f 248/7/2 246/7/2 252/7/2
f 251/7/2 248/7/2 252/7/2
f 250/7/2 251/7/2 253/7/2
f 249/7/2 250/7/2 253/7/2
f 253/7/2 251/7/2 254/7/2
f 249/7/2 253/7/2 256/7/2
f 252/7/2 246/7/2 257/7/2
f 255/7/2 256/7/2 259/7/2
f 256/7/2 253/7/2 260/7/2
f 259/7/2 256/7/2 260/7/2
f 257/7/2 258/7/2 261/7/2
f 252/7/2 257/7/2 261/7/2
f 261/7/2 258/7/2 262/7/2
f 260/7/2 253/7/2 263/7/2
f 263/7/2 253/7/2 264/7/2
f 252/7/2 261/7/2 265/7/2
f 265/7/2 261/7/2 266/7/2
f 267/5/2 268/5/2 270/5/2
f 269/5/2 270/5/2 271/5/2
f 270/5/2 268/5/2 272/5/2
f 271/5/2 270/5/2 272/5/2
f 275/5/3 274/5/3 273/5/3
f 276/5/3 274/5/3 275/5/3
f 279/7/3 278/7/3 277/7/3
f 281/7/3 279/7/3 277/7/3
f 281/7/3 280/7/3 279/7/3
f 282/7/3 280/7/3 281/7/3
f 284/7/3 280/7/3 282/7/3
f 285/7/3 280/7/3 284/7/3
f 285/7/3 284/7/3 283/7/3
f 286/7/3 280/7/3 285/7/3
f 287/7/3 285/7/3 283/7/3
f 288/7/3 285/7/3 287/7/3
f 291/7/3 290/7/3 289/7/3
f 292/7/3 290/7/3 291/7/3
f 294/7/3 293/7/3 292/7/3
f 296/7/3 294/7/3 292/7/3
f 296/5/3 295/5/3 294/5/3
f 297/5/3 295/5/3 296/5/3
f 299/7/3 296/7/3 292/7/3
f 300/7/3 296/7/3 299/7/3
f 301/7/3 299/7/3 298/7/3
f 302/7/3 299/7/3 301/7/3
f 307/7/3 304/7/3 303/7/3
f 308/7/3 304/7/3 307/7/3
f 309/7/3 306/7/3 305/7/3
f 310/7/3 306/7/3 309/7/3
f 313/7/3 312/7/3 311/7/3
f 314/7/3 312/7/3 313/7/3
f 317/7/3 316/7/3 315/7/3
f 318/7/3 316/7/3 317/7/3
f 324/7/3 320/7/3 319/7/3
f 325/7/3 320/7/3 324/7/3
f 326/7/3 322/7/3 321/7/3
f 327/7/3 322/7/3 326/7/3
f 329/7/3 324/7/3 323/7/3
f 330/7/3 324/7/3 329/7/3
f 331/7/3 328/7/3 327/7/3
f 332/7/3 328/7/3 331/7/3
f 335/4/3 334/4/3 333/4/3
f 336/4/3 334/4/3 335/4/3
f 341/7/3 338/7/3 337/7/3
f 342/7/3 338/7/3 341/7/3
f 345/7/3 340/7/3 339/7/3
f 346/7/3 340/7/3 345/7/3
f 347/7/3 343/7/3 342/7/3
f 348/7/3 343/7/3 347/7/3
f 349/7/3 345/7/3 344/7/3
f 350/7/3 345/7/3 349/7/3
f 355/5/3 352/5/3 351/5/3
f 356/5/3 352/5/3 355/5/3
f 358/7/3 354/7/3 353/7/3
f 359/7/3 354/7/3 358/7/3
f 360/7/3 358/7/3 357/7/3
f 361/7/3 358/7/3 360/7/3
f 364/7/3 363/7/3 362/7/3
f 365/7/3 363/7/3 364/7/3
f 370/4/3 367/4/3 366/4/3
f 371/4/3 367/4/3 370/4/3
f 374/7/3 369/7/3 368/7/3
f 375/7/3 369/7/3 374/7/3
f 376/7/3 373/7/3 372/7/3
f 377/7/3 373/7/3 376/7/3
f 379/7/3 378/7/3 377/7/3
f 380/7/3 378/7/3 379/7/3
f 383/5/3 382/5/3 381/5/3
f 384/5/3 382/5/3 383/5/3
f 387/5/3 386/5/3 385/5/3
f 388/5/3 386/5/3 387/5/3
f 391/4/3 390/4/3 389/4/3
f 392/4/3 390/4/3 391/4/3
f 395/5/3 394/5/3 393/5/3
f 396/5/3 394/5/3 395/5/3
f 400/6/3 398/6/3 397/6/3
f 400/6/3 399/6/3 398/6/3
f 401/6/3 399/6/3 400/6/3
f 402/6/3 399/6/3 401/6/3
f 405/7/3 404/7/3 403/7/3
f 406/7/3 404/7/3 405/7/3
f 409/6/3 408/6/3 407/6/3
f 410/6/3 408/6/3 409/6/3
f 413/7/3 412/7/3 411/7/3
f 414/7/3 412/7/3 413/7/3
f 415/6/4 416/6/4 417/6/4
f 417/6/4 416/6/4 418/6/4
f 419/5/4 420/5/4 421/5/4
f 421/5/4 420/5/4 422/5/4
f 423/5/4 424/5/4 425/5/4
f 425/5/4 424/5/4 426/5/4
f 427/7/4 428/7/4 432/7/4
f 432/7/4 428/7/4 433/7/4
f 429/7/4 430/7/4 434/7/4
f 434/7/4 430/7/4 435/7/4
f 431/7/4 432/7/4 437/7/4
f 437/7/4 432/7/4 438/7/4
f 435/7/4 436/7/4 439/7/4
f 439/7/4 436/7/4 440/7/4
f 440/7/4 441/7/4 442/7/4
f 442/7/4 441/7/4 443/7/4
f 431/7/4 437/7/4 446/7/4
f 444/7/4 445/7/4 449/7/4
f 449/7/4 445/7/4 450/7/4
f 446/7/4 447/7/4 451/7/4
f 431/7/4 446/7/4 451/7/4
f 451/7/4 447/7/4 452/7/4
f 448/7/4 449/7/4 455/7/4
f 455/7/4 449/7/4 456/7/4
f 452/7/4 453/7/4 457/7/4
f 457/7/4 453/7/4 458/7/4
f 454/7/4 455/7/4 459/7/4
f 459/7/4 455/7/4 460/7/4
f 461/7/4 462/7/4 464/7/4
f 464/7/4 462/7/4 465/7/4
f 463/7/4 464/7/4 468/7/4
f 468/7/4 464/7/4 469/7/4
f 469/7/4 464/7/4 470/7/4
f 465/7/4 466/7/4 471/7/4
f 471/7/4 466/7/4 472/7/4
f 467/7/4 468/7/4 474/7/4
f 468/7/4 469/7/4 474/7/4
f 474/7/4 469/7/4 475/7/4
f 472/7/4 473/7/4 476/7/4
f 476/7/4 473/7/4 477/7/4
f 467/7/4 474/7/4 478/7/4
f 467/7/4 478/7/4 482/7/4
f 478/7/4 479/7/4 482/7/4
f 482/7/4 479/7/4 483/7/4
f 483/7/4 479/7/4 484/7/4
f 480/7/4 481/7/4 487/7/4
f 487/7/4 481/7/4 488/7/4
f 484/7/4 485/7/4 489/7/4
f 483/7/4 484/7/4 489/7/4
f 489/7/4 485/7/4 490/7/4
f 486/7/4 487/7/4 491/7/4
f 491/7/4 487/7/4 492/7/4
f 490/7/4 491/7/4 493/7/4
f 493/7/4 491/7/4 494/7/4
f 495/7/4 496/7/4 498/7/4
f 498/7/4 496/7/4 499/7/4
f 497/7/4 498/7/4 502/7/4
f 499/7/4 500/7/4 502/7/4
f 498/7/4 499/7/4 502/7/4
f 502/7/4 500/7/4 503/7/4
f 501/7/4 502/7/4 506/7/4
f 506/7/4 502/7/4 507/7/4
f 504/4/4 505/4/4 509/4/4
f 509/4/4 505/4/4 510/4/4
f 507/7/4 508/7/4 511/7/4
f 511/7/4 508/7/4 512/7/4
f 512/7/4 508/7/4 513/7/4
f 513/7/4 508/7/4 514/7/4
f 512/7/4 513/7/4 515/7/4
f 515/7/4 513/7/4 516/7/4
f 517/4/4 518/4/4 521/4/4
f 521/4/4 518/4/4 522/4/4
f 519/4/4 520/4/4 523/4/4
f 523/4/4 520/4/4 524/4/4
f 525/4/4 526/4/4 529/4/4
f 529/4/4 526/4/4 530/4/4
f 527/4/4 528/4/4 531/4/4
f 531/4/4 528/4/4 532/4/4
f 533/4/4 534/4/4 535/4/4
f 535/4/4 534/4/4 536/4/4
f 541/7/5 538/7/5 537/7/5
f 542/7/5 540/7/5 539/7/5
f 543/7/5 541/7/5 537/7/5
f 543/6/5 542/6/5 541/6/5
f 544/7/5 540/7/5 542/7/5
f 544/6/5 542/6/5 543/6/5
f 545/7/5 543/7/5 537/7/5
f 545/7/5 544/7/5 543/7/5
f 546/7/5 540/7/5 544/7/5
f 546/7/5 544/7/5 545/7/5
f 549/7/5 548/7/5 547/7/5
f 550/7/5 548/7/5 549/7/5
f 555/7/5 552/7/5 551/7/5
f 556/7/5 552/7/5 555/7/5
f 559/7/5 554/7/5 553/7/5
f 560/7/5 554/7/5 559/7/5
f 561/7/5 557/7/5 556/7/5
f 562/7/5 557/7/5 561/7/5
f 563/7/5 559/7/5 558/7/5
f 564/7/5 559/7/5 563/7/5
f 570/7/5 566/7/5 565/7/5
f 571/7/5 566/7/5 570/7/5
f 572/7/5 568/7/5 567/7/5
f 573/7/5 568/7/5 572/7/5
f 575/7/5 570/7/5 569/7/5
f 576/7/5 570/7/5 575/7/5
f 577/7/5 574/7/5 573/7/5
f 578/7/5 574/7/5 577/7/5
f 581/7/5 580/7/5 579/7/5
f 582/7/5 580/7/5 581/7/5
f 588/7/5 584/7/5 583/7/5
f 589/7/5 584/7/5 588/7/5
f 590/7/5 586/7/5 585/7/5
f 591/7/5 586/7/5 590/7/5
f 593/7/5 588/7/5 587/7/5
f 594/7/5 588/7/5 593/7/5
f 595/7/5 592/7/5 591/7/5
f 596/7/5 592/7/5 595/7/5
f 601/5/5 598/5/5 597/5/5
f 602/5/5 598/5/5 601/5/5
f 603/5/5 600/5/5 599/5/5
f 604/5/5 600/5/5 603/5/5
f 609/7/5 606/7/5 605/7/5
f 610/7/5 606/7/5 609/7/5
f 611/7/5 608/7/5 607/7/5
f 612/7/5 608/7/5 611/7/5
f 613/4/5 611/4/5 610/4/5
f 614/4/5 611/4/5 613/4/5
f 618/5/5 616/5/5 615/5/5
f 619/5/5 616/5/5 618/5/5
f 621/7/5 618/7/5 617/7/5
f 621/7/5 620/7/5 619/7/5
f 621/7/5 619/7/5 618/7/5
f 622/7/5 620/7/5 621/7/5
f 623/7/5 620/7/5 622/7/5
f 624/7/5 620/7/5 623/7/5
f 625/6/5 623/6/5 622/6/5
f 626/6/5 623/6/5 625/6/5
f 631/5/5 628/5/5 627/5/5
f 632/5/5 628/5/5 631/5/5
f 633/5/5 630/5/5 629/5/5
f 634/5/5 630/5/5 633/5/5
f 637/4/5 636/4/5 635/4/5
f 638/4/5 636/4/5 637/4/5
f 643/7/5 640/7/5 639/7/5
f 644/7/5 640/7/5 643/7/5
f 647/7/5 642/7/5 641/7/5
f 648/7/5 642/7/5 647/7/5
f 649/6/5 646/6/5 645/6/5
f 650/6/5 646/6/5 649/6/5
f 655/7/5 652/7/5 651/7/5
f 656/7/5 652/7/5 655/7/5
f 659/7/5 654/7/5 653/7/5
f 660/7/5 654/7/5 659/7/5
f 661/7/5 657/7/5 656/7/5
f 662/7/5 657/7/5 661/7/5
f 663/7/5 659/7/5 658/7/5
f 664/7/5 659/7/5 663/7/5
f 667/4/5 666/4/5 665/4/5
f 668/4/5 666/4/5 667/4/5
f 669/6/6 670/6/6 671/6/6
f 671/6/6 670/6/6 672/6/6
f 673/5/6 674/5/6 677/5/6
f 677/5/6 674/5/6 678/5/6
f 675/7/6 676/7/6 681/7/6
f 681/7/6 676/7/6 682/7/6
f 679/7/6 680/7/6 683/7/6
f 683/7/6 680/7/6 684/7/6
f 685/7/6 686/7/6 689/7/6
f 689/7/6 686/7/6 690/7/6
f 687/7/6 688/7/6 691/7/6
f 691/7/6 688/7/6 692/7/6
f 693/7/6 694/7/6 697/7/6
f 697/7/6 694/7/6 698/7/6
f 695/7/6 696/7/6 701/7/6
f 701/7/6 696/7/6 702/7/6
f 698/7/6 699/7/6 703/7/6
f 703/7/6 699/7/6 704/7/6
f 700/7/6 701/7/6 705/7/6
f 705/7/6 701/7/6 706/7/6
f 707/7/6 708/7/6 710/7/6
f 710/7/6 708/7/6 711/7/6
f 709/7/6 710/7/6 714/7/6
f 714/7/6 710/7/6 715/7/6
f 711/7/6 712/7/6 716/7/6
f 716/7/6 712/7/6 717/7/6
f 713/7/6 714/7/6 720/7/6
f 717/7/6 718/7/6 721/7/6
f 719/5/6 720/5/6 723/5/6
f 720/7/6 714/7/6 724/7/6
f 723/5/6 720/5/6 724/5/6
f 721/5/6 722/5/6 725/5/6
f 717/7/6 721/7/6 725/7/6
f 725/5/6 722/5/6 726/5/6
f 724/7/6 714/7/6 727/7/6
f 727/7/6 714/7/6 728/7/6
f 717/7/6 725/7/6 731/7/6
f 731/7/6 725/7/6 732/7/6
f 728/7/6 729/7/6 733/7/6
f 733/7/6 729/7/6 734/7/6
f 730/7/6 731/7/6 737/7/6
f 737/7/6 731/7/6 738/7/6
f 734/7/6 735/7/6 739/7/6
f 739/7/6 735/7/6 740/7/6
f 736/7/6 737/7/6 741/7/6
f 741/7/6 737/7/6 742/7/6
f 743/7/6 744/7/6 747/7/6
f 745/7/6 746/7/6 748/7/6
f 743/7/6 747/7/6 750/7/6
f 748/7/6 746/7/6 751/7/6
f 749/7/6 750/7/6 753/7/6
f 750/7/6 747/7/6 753/7/6
f 753/7/6 747/7/6 754/7/6
f 751/7/6 752/7/6 755/7/6
f 748/7/6 751/7/6 755/7/6
f 755/7/6 752/7/6 756/7/6
f 749/7/6 753/7/6 757/7/6
f 757/7/6 753/7/6 758/7/6
f 756/7/6 752/7/6 761/7/6
f 761/7/6 752/7/6 762/7/6
f 758/7/6 759/7/6 763/7/6
f 763/7/6 759/7/6 764/7/6
f 760/7/6 761/7/6 765/7/6
f 765/7/6 761/7/6 766/7/6
f 767/7/6 768/7/6 771/7/6
f 771/7/6 768/7/6 772/7/6
f 769/7/6 770/7/6 773/7/6
f 773/7/6 770/7/6 774/7/6
f 775/5/6 776/5/6 777/5/6
f 777/5/6 776/5/6 778/5/6
f 779/4/6 780/4/6 781/4/6
f 781/4/6 780/4/6 782/4/6
f 783/4/6 784/4/6 785/4/6
f 785/4/6 784/4/6 786/4/6
f 787/4/6 788/4/6 789/4/6
f 789/4/6 788/4/6 790/4/6
f 791/4/6 792/4/6 793/4/6
f 793/4/6 792/4/6 794/4/6
f 795/4/6 796/4/6 797/4/6
f 797/4/6 796/4/6 798/4/6
f 799/4/6 800/4/6 801/4/6
f 801/4/6 800/4/6 802/4/6
