# MagicaVoxel @ ephtracy

# material
mtllib sword-simple-2.mtl
usemtl palette

# normals
vn -1 0 0
vn 1 0 0
vn 0 0 1
vn 0 0 -1
vn 0 -1 0
vn 0 1 0

# texcoords
vt 0.0214844 0.5
vt 0.373047 0.5
vt 0.822266 0.5
vt 0.853516 0.5
vt 0.935547 0.5
vt 0.962891 0.5
vt 0.970703 0.5

# verts
v -6 13 2
v -6 13 1
v -6 15 2
v -6 15 1
v -2 13 3
v -2 13 2
v -2 13 1
v -2 13 -0
v -2 15 3
v -2 15 2
v -2 15 1
v -2 15 -0
v -2 25 2
v -2 25 1
v -1 2 2
v -1 2 1
v -1 12 3
v -1 12 2
v -1 12 1
v -1 12 -0
v -1 13 4
v -1 13 3
v -1 13 2
v -1 13 1
v -1 13 -0
v -1 13 -1
v -1 15 4
v -1 15 3
v -1 15 2
v -1 15 1
v -1 15 -0
v -1 15 -1
v -1 16 3
v -1 16 2
v -1 16 1
v -1 16 -0
v -1 25 2
v -1 25 1
v -1 46 2
v -1 46 1
v 1 2 2
v 1 2 1
v 1 12 3
v 1 12 2
v 1 12 1
v 1 12 -0
v 1 13 4
v 1 13 3
v 1 13 2
v 1 13 1
v 1 13 -0
v 1 13 -1
v 1 15 4
v 1 15 3
v 1 15 2
v 1 15 1
v 1 15 -0
v 1 15 -1
v 1 16 3
v 1 16 2
v 1 16 1
v 1 16 -0
v 1 25 2
v 1 25 1
v 1 46 2
v 1 46 1
v 2 13 3
v 2 13 2
v 2 13 1
v 2 13 -0
v 2 15 3
v 2 15 2
v 2 15 1
v 2 15 -0
v 2 25 2
v 2 25 1
v 6 13 2
v 6 13 1
v 6 15 2
v 6 15 1
v -1 13 4
v -1 15 4
v 1 13 4
v 1 15 4
v -2 13 3
v -2 15 3
v -1 12 3
v -1 13 3
v -1 15 3
v -1 16 3
v 1 12 3
v 1 13 3
v 1 15 3
v 1 16 3
v 2 13 3
v 2 15 3
v -6 13 2
v -6 15 2
v -2 13 2
v -2 15 2
v -2 25 2
v -1 2 2
v -1 12 2
v -1 15 2
v -1 16 2
v -1 25 2
v -1 46 2
v 1 2 2
v 1 12 2
v 1 15 2
v 1 16 2
v 1 25 2
v 1 46 2
v 2 13 2
v 2 15 2
v 2 25 2
v 6 13 2
v 6 15 2
v -6 13 1
v -6 15 1
v -2 13 1
v -2 15 1
v -2 25 1
v -1 2 1
v -1 12 1
v -1 15 1
v -1 16 1
v -1 25 1
v -1 46 1
v 1 2 1
v 1 12 1
v 1 15 1
v 1 16 1
v 1 25 1
v 1 46 1
v 2 13 1
v 2 15 1
v 2 25 1
v 6 13 1
v 6 15 1
v -2 13 -0
v -2 15 -0
v -1 12 -0
v -1 13 -0
v -1 15 -0
v -1 16 -0
v 1 12 -0
v 1 13 -0
v 1 15 -0
v 1 16 -0
v 2 13 -0
v 2 15 -0
v -1 13 -1
v -1 15 -1
v 1 13 -1
v 1 15 -1
v -1 2 2
v 1 2 2
v -1 2 1
v 1 2 1
v -1 12 3
v 1 12 3
v -1 12 2
v 1 12 2
v -1 12 1
v 1 12 1
v -1 12 -0
v 1 12 -0
v -1 13 4
v 1 13 4
v -2 13 3
v -1 13 3
v 1 13 3
v 2 13 3
v -6 13 2
v -2 13 2
v -1 13 2
v 1 13 2
v 2 13 2
v 6 13 2
v -6 13 1
v -2 13 1
v -1 13 1
v 1 13 1
v 2 13 1
v 6 13 1
v -2 13 -0
v -1 13 -0
v 1 13 -0
v 2 13 -0
v -1 13 -1
v 1 13 -1
v -1 15 4
v 1 15 4
v -2 15 3
v -1 15 3
v 1 15 3
v 2 15 3
v -6 15 2
v -2 15 2
v -1 15 2
v 1 15 2
v 2 15 2
v 6 15 2
v -6 15 1
v -2 15 1
v -1 15 1
v 1 15 1
v 2 15 1
v 6 15 1
v -2 15 -0
v -1 15 -0
v 1 15 -0
v 2 15 -0
v -1 15 -1
v 1 15 -1
v -1 16 3
v 1 16 3
v -1 16 2
v 1 16 2
v -1 16 1
v 1 16 1
v -1 16 -0
v 1 16 -0
v -2 25 2
v -1 25 2
v 1 25 2
v 2 25 2
v -2 25 1
v -1 25 1
v 1 25 1
v 2 25 1
v -1 46 2
v 1 46 2
v -1 46 1
v 1 46 1

# faces
f 3/3/1 2/3/1 1/3/1
f 4/3/1 2/3/1 3/3/1
f 9/2/1 6/2/1 5/2/1
f 10/2/1 6/2/1 9/2/1
f 11/2/1 8/2/1 7/2/1
f 12/2/1 8/2/1 11/2/1
f 13/6/1 11/6/1 10/6/1
f 14/6/1 11/6/1 13/6/1
f 18/5/1 16/5/1 15/5/1
f 19/5/1 16/5/1 18/5/1
f 22/2/1 18/2/1 17/2/1
f 23/5/1 19/5/1 18/5/1
f 23/2/1 18/2/1 22/2/1
f 24/2/1 20/2/1 19/2/1
f 24/5/1 19/5/1 23/5/1
f 25/2/1 20/2/1 24/2/1
f 27/4/1 22/4/1 21/4/1
f 28/4/1 22/4/1 27/4/1
f 31/4/1 26/4/1 25/4/1
f 32/4/1 26/4/1 31/4/1
f 33/2/1 29/2/1 28/2/1
f 34/2/1 29/2/1 33/2/1
f 35/2/1 31/2/1 30/2/1
f 36/2/1 31/2/1 35/2/1
f 39/6/1 38/6/1 37/6/1
f 40/6/1 38/6/1 39/6/1
f 41/5/2 42/5/2 44/5/2
f 44/5/2 42/5/2 45/5/2
f 43/2/2 44/2/2 48/2/2
f 44/5/2 45/5/2 49/5/2
f 48/2/2 44/2/2 49/2/2
f 45/2/2 46/2/2 50/2/2
f 49/5/2 45/5/2 50/5/2
f 50/2/2 46/2/2 51/2/2
f 47/4/2 48/4/2 53/4/2
f 53/4/2 48/4/2 54/4/2
f 51/4/2 52/4/2 57/4/2
f 57/4/2 52/4/2 58/4/2
f 54/2/2 55/2/2 59/2/2
f 59/2/2 55/2/2 60/2/2
f 56/2/2 57/2/2 61/2/2
f 61/2/2 57/2/2 62/2/2
f 63/6/2 64/6/2 65/6/2
f 65/6/2 64/6/2 66/6/2
f 67/2/2 68/2/2 71/2/2
f 71/2/2 68/2/2 72/2/2
f 69/2/2 70/2/2 73/2/2
f 73/2/2 70/2/2 74/2/2
f 72/6/2 73/6/2 75/6/2
f 75/6/2 73/6/2 76/6/2
f 77/3/2 78/3/2 79/3/2
f 79/3/2 78/3/2 80/3/2
f 83/4/3 82/4/3 81/4/3
f 84/4/3 82/4/3 83/4/3
f 88/2/3 86/2/3 85/2/3
f 89/2/3 86/2/3 88/2/3
f 91/2/3 88/2/3 87/2/3
f 92/2/3 88/2/3 91/2/3
f 93/2/3 90/2/3 89/2/3
f 94/2/3 90/2/3 93/2/3
f 95/2/3 93/2/3 92/2/3
f 96/2/3 93/2/3 95/2/3
f 99/3/3 98/3/3 97/3/3
f 100/3/3 98/3/3 99/3/3
f 104/6/3 101/6/3 100/6/3
f 105/6/3 101/6/3 104/6/3
f 106/6/3 101/6/3 105/6/3
f 108/5/3 103/5/3 102/5/3
f 109/5/3 103/5/3 108/5/3
f 111/6/3 107/6/3 106/6/3
f 111/6/3 106/6/3 105/6/3
f 112/6/3 107/6/3 111/6/3
f 113/6/3 107/6/3 112/6/3
f 115/6/3 111/6/3 110/6/3
f 115/6/3 112/6/3 111/6/3
f 116/6/3 112/6/3 115/6/3
f 117/3/3 115/3/3 114/3/3
f 118/3/3 115/3/3 117/3/3
f 119/3/4 120/3/4 121/3/4
f 121/3/4 120/3/4 122/3/4
f 122/6/4 123/6/4 126/6/4
f 126/6/4 123/6/4 127/6/4
f 127/6/4 123/6/4 128/6/4
f 124/5/4 125/5/4 130/5/4
f 130/5/4 125/5/4 131/5/4
f 128/6/4 129/6/4 133/6/4
f 127/6/4 128/6/4 133/6/4
f 133/6/4 129/6/4 134/6/4
f 134/6/4 129/6/4 135/6/4
f 132/6/4 133/6/4 137/6/4
f 133/6/4 134/6/4 137/6/4
f 137/6/4 134/6/4 138/6/4
f 136/3/4 137/3/4 139/3/4
f 139/3/4 137/3/4 140/3/4
f 141/2/4 142/2/4 144/2/4
f 144/2/4 142/2/4 145/2/4
f 143/2/4 144/2/4 147/2/4
f 147/2/4 144/2/4 148/2/4
f 145/2/4 146/2/4 149/2/4
f 149/2/4 146/2/4 150/2/4
f 148/2/4 149/2/4 151/2/4
f 151/2/4 149/2/4 152/2/4
f 153/4/4 154/4/4 155/4/4
f 155/4/4 154/4/4 156/4/4
f 159/5/5 158/5/5 157/5/5
f 160/5/5 158/5/5 159/5/5
f 163/2/5 162/2/5 161/2/5
f 164/2/5 162/2/5 163/2/5
f 167/2/5 166/2/5 165/2/5
f 168/2/5 166/2/5 167/2/5
f 172/4/5 170/4/5 169/4/5
f 173/4/5 170/4/5 172/4/5
f 176/2/5 172/2/5 171/2/5
f 177/2/5 172/2/5 176/2/5
f 178/2/5 174/2/5 173/2/5
f 179/2/5 174/2/5 178/2/5
f 181/3/5 177/3/5 176/3/5
f 181/3/5 176/3/5 175/3/5
f 182/3/5 177/3/5 181/3/5
f 183/3/5 177/3/5 182/3/5
f 184/3/5 180/3/5 179/3/5
f 184/3/5 179/3/5 178/3/5
f 185/3/5 180/3/5 184/3/5
f 186/3/5 180/3/5 185/3/5
f 187/2/5 183/2/5 182/2/5
f 188/2/5 183/2/5 187/2/5
f 189/2/5 185/2/5 184/2/5
f 190/2/5 185/2/5 189/2/5
f 191/4/5 189/4/5 188/4/5
f 192/4/5 189/4/5 191/4/5
f 193/4/6 194/4/6 196/4/6
f 196/4/6 194/4/6 197/4/6
f 195/2/6 196/2/6 200/2/6
f 200/2/6 196/2/6 201/2/6
f 197/2/6 198/2/6 202/2/6
f 202/2/6 198/2/6 203/2/6
f 199/3/6 200/3/6 205/3/6
f 205/3/6 200/3/6 206/3/6
f 203/3/6 204/3/6 209/3/6
f 209/3/6 204/3/6 210/3/6
f 206/2/6 207/2/6 211/2/6
f 211/2/6 207/2/6 212/2/6
f 208/2/6 209/2/6 213/2/6
f 213/2/6 209/2/6 214/2/6
f 212/4/6 213/4/6 215/4/6
f 215/4/6 213/4/6 216/4/6
f 217/2/6 218/2/6 219/2/6
f 219/2/6 218/2/6 220/2/6
f 221/2/6 222/2/6 223/2/6
f 223/2/6 222/2/6 224/2/6
f 225/6/6 226/6/6 229/6/6
f 229/6/6 226/6/6 230/6/6
f 227/6/6 228/6/6 231/6/6
f 231/6/6 228/6/6 232/6/6
f 233/6/6 234/6/6 235/6/6
f 235/6/6 234/6/6 236/6/6
