# MagicaVoxel @ ephtracy

# material
mtllib shield.mtl
usemtl palette

# normals
vn -1 0 0
vn 1 0 0
vn 0 0 1
vn 0 0 -1
vn 0 -1 0
vn 0 1 0

# texcoords
vt 0.0214844 0.5
vt 0.537109 0.5
vt 0.990234 0.5

# verts
v -5 4 1
v -5 4 -1
v -5 17 1
v -5 17 -1
v -4 3 1
v -4 3 -1
v -4 4 1
v -4 4 -1
v -4 17 1
v -4 17 -1
v -4 18 1
v -4 18 -1
v -3 2 1
v -3 2 -1
v -3 3 1
v -3 3 -1
v -3 18 1
v -3 18 -1
v -3 19 1
v -3 19 -1
v -2 1 1
v -2 1 -1
v -2 2 1
v -2 2 -1
v -2 9 1
v -2 9 -0
v -2 10 1
v -2 10 -0
v -2 12 1
v -2 12 -0
v -2 13 1
v -2 13 -0
v -2 19 1
v -2 19 -1
v -2 20 1
v -2 20 -1
v -1 8 1
v -1 8 -0
v -1 9 1
v -1 9 -0
v 1 18 1
v 1 18 -0
v 1 19 1
v 1 19 -0
v 2 3 1
v 2 3 -0
v 2 4 1
v 2 4 -0
v 2 17 1
v 2 17 -0
v 2 18 1
v 2 18 -0
v 3 4 1
v 3 4 -0
v 3 5 1
v 3 5 -0
v 3 16 1
v 3 16 -0
v 3 17 1
v 3 17 -0
v 4 5 1
v 4 5 -0
v 4 16 1
v 4 16 -0
v -4 5 1
v -4 5 -0
v -4 16 1
v -4 16 -0
v -3 4 1
v -3 4 -0
v -3 5 1
v -3 5 -0
v -3 16 1
v -3 16 -0
v -3 17 1
v -3 17 -0
v -2 3 1
v -2 3 -0
v -2 4 1
v -2 4 -0
v -2 17 1
v -2 17 -0
v -2 18 1
v -2 18 -0
v -1 18 1
v -1 18 -0
v -1 19 1
v -1 19 -0
v 1 8 1
v 1 8 -0
v 1 9 1
v 1 9 -0
v 2 1 1
v 2 1 -1
v 2 2 1
v 2 2 -1
v 2 9 1
v 2 9 -0
v 2 10 1
v 2 10 -0
v 2 12 1
v 2 12 -0
v 2 13 1
v 2 13 -0
v 2 19 1
v 2 19 -1
v 2 20 1
v 2 20 -1
v 3 2 1
v 3 2 -1
v 3 3 1
v 3 3 -1
v 3 18 1
v 3 18 -1
v 3 19 1
v 3 19 -1
v 4 3 1
v 4 3 -1
v 4 4 1
v 4 4 -1
v 4 17 1
v 4 17 -1
v 4 18 1
v 4 18 -1
v 5 4 1
v 5 4 -1
v 5 17 1
v 5 17 -1
v -5 4 1
v -5 17 1
v -4 3 1
v -4 4 1
v -4 5 1
v -4 16 1
v -4 17 1
v -4 18 1
v -3 2 1
v -3 3 1
v -3 4 1
v -3 5 1
v -3 16 1
v -3 17 1
v -3 18 1
v -3 19 1
v -2 1 1
v -2 2 1
v -2 3 1
v -2 4 1
v -2 9 1
v -2 10 1
v -2 12 1
v -2 13 1
v -2 17 1
v -2 18 1
v -2 19 1
v -2 20 1
v -1 8 1
v -1 9 1
v -1 10 1
v -1 12 1
v -1 13 1
v -1 18 1
v -1 19 1
v 1 8 1
v 1 9 1
v 1 10 1
v 1 12 1
v 1 13 1
v 1 18 1
v 1 19 1
v 2 1 1
v 2 2 1
v 2 3 1
v 2 4 1
v 2 9 1
v 2 10 1
v 2 12 1
v 2 13 1
v 2 17 1
v 2 18 1
v 2 19 1
v 2 20 1
v 3 2 1
v 3 3 1
v 3 4 1
v 3 5 1
v 3 16 1
v 3 17 1
v 3 18 1
v 3 19 1
v 4 3 1
v 4 4 1
v 4 5 1
v 4 16 1
v 4 17 1
v 4 18 1
v 5 4 1
v 5 17 1
v -4 5 -0
v -4 16 -0
v -3 4 -0
v -3 5 -0
v -3 6 -0
v -3 15 -0
v -3 16 -0
v -3 17 -0
v -2 3 -0
v -2 4 -0
v -2 5 -0
v -2 6 -0
v -2 9 -0
v -2 10 -0
v -2 12 -0
v -2 13 -0
v -2 15 -0
v -2 16 -0
v -2 17 -0
v -2 18 -0
v -1 4 -0
v -1 5 -0
v -1 8 -0
v -1 9 -0
v -1 13 -0
v -1 16 -0
v -1 17 -0
v -1 18 -0
v -1 19 -0
v 1 4 -0
v 1 5 -0
v 1 8 -0
v 1 9 -0
v 1 13 -0
v 1 16 -0
v 1 17 -0
v 1 18 -0
v 1 19 -0
v 2 3 -0
v 2 4 -0
v 2 5 -0
v 2 6 -0
v 2 9 -0
v 2 10 -0
v 2 12 -0
v 2 13 -0
v 2 15 -0
v 2 16 -0
v 2 17 -0
v 2 18 -0
v 3 4 -0
v 3 5 -0
v 3 6 -0
v 3 15 -0
v 3 16 -0
v 3 17 -0
v 4 5 -0
v 4 16 -0
v -5 4 -1
v -5 17 -1
v -4 3 -1
v -4 4 -1
v -4 5 -1
v -4 16 -1
v -4 17 -1
v -4 18 -1
v -3 2 -1
v -3 3 -1
v -3 4 -1
v -3 5 -1
v -3 6 -1
v -3 15 -1
v -3 16 -1
v -3 17 -1
v -3 18 -1
v -3 19 -1
v -2 1 -1
v -2 2 -1
v -2 3 -1
v -2 4 -1
v -2 5 -1
v -2 6 -1
v -2 9 -1
v -2 13 -1
v -2 15 -1
v -2 16 -1
v -2 17 -1
v -2 18 -1
v -2 19 -1
v -2 20 -1
v -1 4 -1
v -1 5 -1
v -1 8 -1
v -1 9 -1
v -1 16 -1
v -1 17 -1
v -1 18 -1
v -1 19 -1
v 1 4 -1
v 1 5 -1
v 1 8 -1
v 1 9 -1
v 1 16 -1
v 1 17 -1
v 1 18 -1
v 1 19 -1
v 2 1 -1
v 2 2 -1
v 2 3 -1
v 2 4 -1
v 2 5 -1
v 2 6 -1
v 2 9 -1
v 2 13 -1
v 2 15 -1
v 2 16 -1
v 2 17 -1
v 2 18 -1
v 2 19 -1
v 2 20 -1
v 3 2 -1
v 3 3 -1
v 3 4 -1
v 3 5 -1
v 3 6 -1
v 3 15 -1
v 3 16 -1
v 3 17 -1
v 3 18 -1
v 3 19 -1
v 4 3 -1
v 4 4 -1
v 4 5 -1
v 4 16 -1
v 4 17 -1
v 4 18 -1
v 5 4 -1
v 5 17 -1
v -2 1 1
v 2 1 1
v -2 1 -1
v 2 1 -1
v -3 2 1
v -2 2 1
v 2 2 1
v 3 2 1
v -3 2 -1
v -2 2 -1
v 2 2 -1
v 3 2 -1
v -4 3 1
v -3 3 1
v 3 3 1
v 4 3 1
v -4 3 -1
v -3 3 -1
v 3 3 -1
v 4 3 -1
v -5 4 1
v -4 4 1
v 4 4 1
v 5 4 1
v -5 4 -1
v -4 4 -1
v 4 4 -1
v 5 4 -1
v -1 8 1
v 1 8 1
v -1 8 -0
v 1 8 -0
v -2 9 1
v -1 9 1
v 1 9 1
v 2 9 1
v -2 9 -0
v -1 9 -0
v 1 9 -0
v 2 9 -0
v -4 16 1
v -3 16 1
v 3 16 1
v 4 16 1
v -4 16 -0
v -3 16 -0
v 3 16 -0
v 4 16 -0
v -3 17 1
v -2 17 1
v 2 17 1
v 3 17 1
v -3 17 -0
v -2 17 -0
v 2 17 -0
v 3 17 -0
v -2 18 1
v -1 18 1
v 1 18 1
v 2 18 1
v -2 18 -0
v -1 18 -0
v 1 18 -0
v 2 18 -0
v -1 19 1
v 1 19 1
v -1 19 -0
v 1 19 -0
v -2 3 1
v 2 3 1
v -2 3 -0
v 2 3 -0
v -3 4 1
v -2 4 1
v 2 4 1
v 3 4 1
v -3 4 -0
v -2 4 -0
v 2 4 -0
v 3 4 -0
v -4 5 1
v -3 5 1
v 3 5 1
v 4 5 1
v -4 5 -0
v -3 5 -0
v 3 5 -0
v 4 5 -0
v -2 13 1
v -1 13 1
v 1 13 1
v 2 13 1
v -2 13 -0
v -1 13 -0
v 1 13 -0
v 2 13 -0
v -5 17 1
v -4 17 1
v 4 17 1
v 5 17 1
v -5 17 -1
v -4 17 -1
v 4 17 -1
v 5 17 -1
v -4 18 1
v -3 18 1
v 3 18 1
v 4 18 1
v -4 18 -1
v -3 18 -1
v 3 18 -1
v 4 18 -1
v -3 19 1
v -2 19 1
v 2 19 1
v 3 19 1
v -3 19 -1
v -2 19 -1
v 2 19 -1
v 3 19 -1
v -2 20 1
v 2 20 1
v -2 20 -1
v 2 20 -1

# faces
f 3/1/1 2/1/1 1/1/1
f 4/1/1 2/1/1 3/1/1
f 7/1/1 6/1/1 5/1/1
f 8/1/1 6/1/1 7/1/1
f 11/1/1 10/1/1 9/1/1
f 12/1/1 10/1/1 11/1/1
f 15/1/1 14/1/1 13/1/1
f 16/1/1 14/1/1 15/1/1
f 19/1/1 18/1/1 17/1/1
f 20/1/1 18/1/1 19/1/1
f 23/1/1 22/1/1 21/1/1
f 24/1/1 22/1/1 23/1/1
f 27/2/1 26/2/1 25/2/1
f 28/2/1 26/2/1 27/2/1
f 29/1/1 28/1/1 27/1/1
f 30/1/1 28/1/1 29/1/1
f 31/2/1 30/2/1 29/2/1
f 32/2/1 30/2/1 31/2/1
f 35/1/1 34/1/1 33/1/1
f 36/1/1 34/1/1 35/1/1
f 39/2/1 38/2/1 37/2/1
f 40/2/1 38/2/1 39/2/1
f 43/1/1 42/1/1 41/1/1
f 44/1/1 42/1/1 43/1/1
f 47/1/1 46/1/1 45/1/1
f 48/1/1 46/1/1 47/1/1
f 51/1/1 50/1/1 49/1/1
f 52/1/1 50/1/1 51/1/1
f 55/1/1 54/1/1 53/1/1
f 56/1/1 54/1/1 55/1/1
f 59/1/1 58/1/1 57/1/1
f 60/1/1 58/1/1 59/1/1
f 63/1/1 62/1/1 61/1/1
f 64/1/1 62/1/1 63/1/1
f 65/1/2 66/1/2 67/1/2
f 67/1/2 66/1/2 68/1/2
f 69/1/2 70/1/2 71/1/2
f 71/1/2 70/1/2 72/1/2
f 73/1/2 74/1/2 75/1/2
f 75/1/2 74/1/2 76/1/2
f 77/1/2 78/1/2 79/1/2
f 79/1/2 78/1/2 80/1/2
f 81/1/2 82/1/2 83/1/2
f 83/1/2 82/1/2 84/1/2
f 85/1/2 86/1/2 87/1/2
f 87/1/2 86/1/2 88/1/2
f 89/2/2 90/2/2 91/2/2
f 91/2/2 90/2/2 92/2/2
f 93/1/2 94/1/2 95/1/2
f 95/1/2 94/1/2 96/1/2
f 97/2/2 98/2/2 99/2/2
f 99/2/2 98/2/2 100/2/2
f 99/1/2 100/1/2 101/1/2
f 101/1/2 100/1/2 102/1/2
f 101/2/2 102/2/2 103/2/2
f 103/2/2 102/2/2 104/2/2
f 105/1/2 106/1/2 107/1/2
f 107/1/2 106/1/2 108/1/2
f 109/1/2 110/1/2 111/1/2
f 111/1/2 110/1/2 112/1/2
f 113/1/2 114/1/2 115/1/2
f 115/1/2 114/1/2 116/1/2
f 117/1/2 118/1/2 119/1/2
f 119/1/2 118/1/2 120/1/2
f 121/1/2 122/1/2 123/1/2
f 123/1/2 122/1/2 124/1/2
f 125/1/2 126/1/2 127/1/2
f 127/1/2 126/1/2 128/1/2
f 132/1/3 130/1/3 129/1/3
f 133/1/3 130/1/3 132/1/3
f 134/1/3 130/1/3 133/1/3
f 135/1/3 130/1/3 134/1/3
f 138/1/3 132/1/3 131/1/3
f 138/1/3 133/1/3 132/1/3
f 139/1/3 133/1/3 138/1/3
f 140/1/3 133/1/3 139/1/3
f 141/1/3 135/1/3 134/1/3
f 141/1/3 136/1/3 135/1/3
f 142/1/3 136/1/3 141/1/3
f 143/1/3 136/1/3 142/1/3
f 146/1/3 139/1/3 138/1/3
f 146/1/3 138/1/3 137/1/3
f 147/1/3 139/1/3 146/1/3
f 148/1/3 139/1/3 147/1/3
f 153/1/3 144/1/3 143/1/3
f 153/1/3 143/1/3 142/1/3
f 154/1/3 144/1/3 153/1/3
f 155/1/3 144/1/3 154/1/3
f 158/2/3 150/2/3 149/2/3
f 159/1/3 151/1/3 150/1/3
f 159/2/3 150/2/3 158/2/3
f 160/2/3 152/2/3 151/2/3
f 160/1/3 151/1/3 159/1/3
f 161/2/3 152/2/3 160/2/3
f 162/1/3 156/1/3 155/1/3
f 162/1/3 155/1/3 154/1/3
f 163/1/3 156/1/3 162/1/3
f 164/2/3 158/2/3 157/2/3
f 165/1/3 159/1/3 158/1/3
f 165/2/3 158/2/3 164/2/3
f 165/1/3 161/1/3 160/1/3
f 165/1/3 160/1/3 159/1/3
f 166/1/3 161/1/3 165/1/3
f 167/1/3 161/1/3 166/1/3
f 168/1/3 161/1/3 167/1/3
f 170/1/3 156/1/3 163/1/3
f 171/1/3 146/1/3 145/1/3
f 171/1/3 147/1/3 146/1/3
f 172/1/3 147/1/3 171/1/3
f 173/1/3 147/1/3 172/1/3
f 175/2/3 166/2/3 165/2/3
f 176/1/3 167/1/3 166/1/3
f 176/2/3 166/2/3 175/2/3
f 177/2/3 168/2/3 167/2/3
f 177/1/3 167/1/3 176/1/3
f 178/2/3 168/2/3 177/2/3
f 180/1/3 170/1/3 169/1/3
f 181/1/3 156/1/3 170/1/3
f 181/1/3 170/1/3 180/1/3
f 182/1/3 156/1/3 181/1/3
f 183/1/3 174/1/3 173/1/3
f 183/1/3 173/1/3 172/1/3
f 184/1/3 174/1/3 183/1/3
f 185/1/3 174/1/3 184/1/3
f 188/1/3 181/1/3 180/1/3
f 188/1/3 180/1/3 179/1/3
f 189/1/3 181/1/3 188/1/3
f 190/1/3 181/1/3 189/1/3
f 191/1/3 186/1/3 185/1/3
f 191/1/3 185/1/3 184/1/3
f 192/1/3 186/1/3 191/1/3
f 193/1/3 186/1/3 192/1/3
f 194/1/3 189/1/3 188/1/3
f 194/1/3 188/1/3 187/1/3
f 195/1/3 189/1/3 194/1/3
f 196/1/3 189/1/3 195/1/3
f 197/1/3 193/1/3 192/1/3
f 197/1/3 195/1/3 194/1/3
f 197/1/3 194/1/3 193/1/3
f 198/1/3 195/1/3 197/1/3
f 202/2/3 200/2/3 199/2/3
f 203/2/3 200/2/3 202/2/3
f 204/2/3 200/2/3 203/2/3
f 205/2/3 200/2/3 204/2/3
f 208/2/3 202/2/3 201/2/3
f 208/2/3 203/2/3 202/2/3
f 209/2/3 203/2/3 208/2/3
f 210/3/3 204/3/3 203/3/3
f 210/2/3 203/2/3 209/2/3
f 211/3/3 204/3/3 210/3/3
f 212/3/3 204/3/3 211/3/3
f 213/3/3 204/3/3 212/3/3
f 214/3/3 204/3/3 213/3/3
f 215/2/3 206/2/3 205/2/3
f 215/3/3 204/3/3 214/3/3
f 215/2/3 205/2/3 204/2/3
f 216/2/3 206/2/3 215/2/3
f 217/2/3 206/2/3 216/2/3
f 219/2/3 209/2/3 208/2/3
f 219/2/3 208/2/3 207/2/3
f 220/3/3 210/3/3 209/3/3
f 220/2/3 209/2/3 219/2/3
f 220/3/3 211/3/3 210/3/3
f 221/3/3 211/3/3 220/3/3
f 222/3/3 211/3/3 221/3/3
f 223/3/3 216/3/3 215/3/3
f 223/3/3 215/3/3 214/3/3
f 224/2/3 218/2/3 217/2/3
f 224/3/3 216/3/3 223/3/3
f 224/2/3 217/2/3 216/2/3
f 225/2/3 218/2/3 224/2/3
f 226/2/3 218/2/3 225/2/3
f 228/3/3 220/3/3 219/3/3
f 228/3/3 221/3/3 220/3/3
f 228/2/3 219/2/3 207/2/3
f 229/3/3 221/3/3 228/3/3
f 230/3/3 221/3/3 229/3/3
f 232/3/3 225/3/3 224/3/3
f 232/3/3 224/3/3 223/3/3
f 233/3/3 225/3/3 232/3/3
f 234/2/3 227/2/3 226/2/3
f 234/3/3 225/3/3 233/3/3
f 234/2/3 226/2/3 225/2/3
f 235/2/3 227/2/3 234/2/3
f 236/2/3 227/2/3 235/2/3
f 237/2/3 228/2/3 207/2/3
f 237/2/3 229/2/3 228/2/3
f 238/2/3 229/2/3 237/2/3
f 239/3/3 231/3/3 230/3/3
f 239/2/3 229/2/3 238/2/3
f 239/3/3 230/3/3 229/3/3
f 240/3/3 231/3/3 239/3/3
f 241/3/3 231/3/3 240/3/3
f 244/3/3 233/3/3 232/3/3
f 245/3/3 233/3/3 244/3/3
f 246/2/3 235/2/3 234/2/3
f 246/3/3 233/3/3 245/3/3
f 246/2/3 234/2/3 233/2/3
f 247/2/3 235/2/3 246/2/3
f 248/2/3 235/2/3 247/2/3
f 249/2/3 239/2/3 238/2/3
f 249/2/3 240/2/3 239/2/3
f 250/2/3 240/2/3 249/2/3
f 251/3/3 243/3/3 242/3/3
f 251/2/3 240/2/3 250/2/3
f 251/3/3 245/3/3 244/3/3
f 251/3/3 244/3/3 243/3/3
f 251/3/3 241/3/3 240/3/3
f 251/3/3 242/3/3 241/3/3
f 252/2/3 247/2/3 246/2/3
f 252/3/3 245/3/3 251/3/3
f 252/2/3 246/2/3 245/2/3
f 253/2/3 247/2/3 252/2/3
f 254/2/3 247/2/3 253/2/3
f 255/2/3 251/2/3 250/2/3
f 255/2/3 253/2/3 252/2/3
f 255/2/3 252/2/3 251/2/3
f 256/2/3 253/2/3 255/2/3
f 257/1/4 258/1/4 260/1/4
f 260/1/4 258/1/4 261/1/4
f 261/1/4 258/1/4 262/1/4
f 262/1/4 258/1/4 263/1/4
f 259/1/4 260/1/4 266/1/4
f 260/1/4 261/1/4 266/1/4
f 266/1/4 261/1/4 267/1/4
f 261/2/4 262/2/4 268/2/4
f 267/1/4 261/1/4 268/1/4
f 268/2/4 262/2/4 269/2/4
f 269/2/4 262/2/4 270/2/4
f 263/1/4 264/1/4 271/1/4
f 270/2/4 262/2/4 271/2/4
f 262/1/4 263/1/4 271/1/4
f 271/1/4 264/1/4 272/1/4
f 272/1/4 264/1/4 273/1/4
f 266/1/4 267/1/4 276/1/4
f 265/1/4 266/1/4 276/1/4
f 276/1/4 267/1/4 277/1/4
f 268/2/4 269/2/4 278/2/4
f 277/1/4 267/1/4 278/1/4
f 267/2/4 268/2/4 278/2/4
f 278/2/4 269/2/4 279/2/4
f 269/3/4 270/3/4 280/3/4
f 279/2/4 269/2/4 280/2/4
f 280/3/4 270/3/4 281/3/4
f 281/3/4 270/3/4 282/3/4
f 270/2/4 271/2/4 283/2/4
f 282/3/4 270/3/4 283/3/4
f 271/2/4 272/2/4 283/2/4
f 283/2/4 272/2/4 284/2/4
f 273/1/4 274/1/4 285/1/4
f 284/2/4 272/2/4 285/2/4
f 272/1/4 273/1/4 285/1/4
f 285/1/4 274/1/4 286/1/4
f 286/1/4 274/1/4 287/1/4
f 278/2/4 279/2/4 289/2/4
f 277/2/4 278/2/4 289/2/4
f 280/3/4 281/3/4 290/3/4
f 289/2/4 279/2/4 290/2/4
f 279/3/4 280/3/4 290/3/4
f 290/3/4 281/3/4 291/3/4
f 281/1/4 282/1/4 292/1/4
f 291/3/4 281/3/4 292/3/4
f 283/3/4 284/3/4 293/3/4
f 282/3/4 283/3/4 293/3/4
f 285/2/4 286/2/4 293/2/4
f 284/2/4 285/2/4 293/2/4
f 293/2/4 286/2/4 294/2/4
f 287/1/4 288/1/4 295/1/4
f 294/2/4 286/2/4 295/2/4
f 286/1/4 287/1/4 295/1/4
f 295/1/4 288/1/4 296/1/4
f 290/3/4 291/3/4 297/3/4
f 277/2/4 289/2/4 297/2/4
f 289/3/4 290/3/4 297/3/4
f 297/3/4 291/3/4 298/3/4
f 291/1/4 292/1/4 299/1/4
f 298/3/4 291/3/4 299/3/4
f 292/1/4 282/1/4 300/1/4
f 299/1/4 292/1/4 300/1/4
f 293/3/4 294/3/4 301/3/4
f 282/3/4 293/3/4 301/3/4
f 295/2/4 296/2/4 302/2/4
f 301/3/4 294/3/4 302/3/4
f 294/2/4 295/2/4 302/2/4
f 302/2/4 296/2/4 303/2/4
f 296/1/4 288/1/4 304/1/4
f 303/2/4 296/2/4 304/2/4
f 276/1/4 277/1/4 305/1/4
f 275/1/4 276/1/4 305/1/4
f 305/1/4 277/1/4 306/1/4
f 297/2/4 298/2/4 307/2/4
f 306/1/4 277/1/4 307/1/4
f 277/2/4 297/2/4 307/2/4
f 307/2/4 298/2/4 308/2/4
f 298/3/4 299/3/4 309/3/4
f 308/2/4 298/2/4 309/2/4
f 299/3/4 300/3/4 309/3/4
f 309/3/4 300/3/4 310/3/4
f 300/1/4 282/1/4 311/1/4
f 310/3/4 300/3/4 311/3/4
f 282/3/4 301/3/4 312/3/4
f 311/1/4 282/1/4 312/1/4
f 312/3/4 301/3/4 313/3/4
f 302/2/4 303/2/4 314/2/4
f 313/3/4 301/3/4 314/3/4
f 301/2/4 302/2/4 314/2/4
f 314/2/4 303/2/4 315/2/4
f 303/1/4 304/1/4 316/1/4
f 315/2/4 303/2/4 316/2/4
f 304/1/4 288/1/4 317/1/4
f 316/1/4 304/1/4 317/1/4
f 317/1/4 288/1/4 318/1/4
f 307/1/4 308/1/4 319/1/4
f 306/1/4 307/1/4 319/1/4
f 319/1/4 308/1/4 320/1/4
f 309/2/4 310/2/4 321/2/4
f 320/1/4 308/1/4 321/1/4
f 308/2/4 309/2/4 321/2/4
f 321/2/4 310/2/4 322/2/4
f 312/3/4 313/3/4 323/3/4
f 322/2/4 310/2/4 323/2/4
f 310/3/4 311/3/4 323/3/4
f 311/3/4 312/3/4 323/3/4
f 314/2/4 315/2/4 324/2/4
f 323/3/4 313/3/4 324/3/4
f 313/2/4 314/2/4 324/2/4
f 324/2/4 315/2/4 325/2/4
f 315/1/4 316/1/4 326/1/4
f 325/2/4 315/2/4 326/2/4
f 316/1/4 317/1/4 326/1/4
f 326/1/4 317/1/4 327/1/4
f 327/1/4 317/1/4 328/1/4
f 321/1/4 322/1/4 329/1/4
f 320/1/4 321/1/4 329/1/4
f 329/1/4 322/1/4 330/1/4
f 324/2/4 325/2/4 331/2/4
f 330/1/4 322/1/4 331/1/4
f 323/2/4 324/2/4 331/2/4
f 322/2/4 323/2/4 331/2/4
f 326/1/4 327/1/4 332/1/4
f 331/2/4 325/2/4 332/2/4
f 325/1/4 326/1/4 332/1/4
f 332/1/4 327/1/4 333/1/4
f 333/1/4 327/1/4 334/1/4
f 330/1/4 331/1/4 335/1/4
f 332/1/4 333/1/4 335/1/4
f 331/1/4 332/1/4 335/1/4
f 335/1/4 333/1/4 336/1/4
f 339/1/5 338/1/5 337/1/5
f 340/1/5 338/1/5 339/1/5
f 345/1/5 342/1/5 341/1/5
f 346/1/5 342/1/5 345/1/5
f 347/1/5 344/1/5 343/1/5
f 348/1/5 344/1/5 347/1/5
f 353/1/5 350/1/5 349/1/5
f 354/1/5 350/1/5 353/1/5
f 355/1/5 352/1/5 351/1/5
f 356/1/5 352/1/5 355/1/5
f 361/1/5 358/1/5 357/1/5
f 362/1/5 358/1/5 361/1/5
f 363/1/5 360/1/5 359/1/5
f 364/1/5 360/1/5 363/1/5
f 367/2/5 366/2/5 365/2/5
f 368/2/5 366/2/5 367/2/5
f 373/2/5 370/2/5 369/2/5
f 374/2/5 370/2/5 373/2/5
f 375/2/5 372/2/5 371/2/5
f 376/2/5 372/2/5 375/2/5
f 381/1/5 378/1/5 377/1/5
f 382/1/5 378/1/5 381/1/5
f 383/1/5 380/1/5 379/1/5
f 384/1/5 380/1/5 383/1/5
f 389/1/5 386/1/5 385/1/5
f 390/1/5 386/1/5 389/1/5
f 391/1/5 388/1/5 387/1/5
f 392/1/5 388/1/5 391/1/5
f 397/1/5 394/1/5 393/1/5
f 398/1/5 394/1/5 397/1/5
f 399/1/5 396/1/5 395/1/5
f 400/1/5 396/1/5 399/1/5
f 403/1/5 402/1/5 401/1/5
f 404/1/5 402/1/5 403/1/5
f 405/1/6 406/1/6 407/1/6
f 407/1/6 406/1/6 408/1/6
f 409/1/6 410/1/6 413/1/6
f 413/1/6 410/1/6 414/1/6
f 411/1/6 412/1/6 415/1/6
f 415/1/6 412/1/6 416/1/6
f 417/1/6 418/1/6 421/1/6
f 421/1/6 418/1/6 422/1/6
f 419/1/6 420/1/6 423/1/6
f 423/1/6 420/1/6 424/1/6
f 425/2/6 426/2/6 429/2/6
f 426/1/6 427/1/6 430/1/6
f 429/2/6 426/2/6 430/2/6
f 427/2/6 428/2/6 431/2/6
f 430/1/6 427/1/6 431/1/6
f 431/2/6 428/2/6 432/2/6
f 433/1/6 434/1/6 437/1/6
f 437/1/6 434/1/6 438/1/6
f 435/1/6 436/1/6 439/1/6
f 439/1/6 436/1/6 440/1/6
f 441/1/6 442/1/6 445/1/6
f 445/1/6 442/1/6 446/1/6
f 443/1/6 444/1/6 447/1/6
f 447/1/6 444/1/6 448/1/6
f 449/1/6 450/1/6 453/1/6
f 453/1/6 450/1/6 454/1/6
f 451/1/6 452/1/6 455/1/6
f 455/1/6 452/1/6 456/1/6
f 457/1/6 458/1/6 459/1/6
f 459/1/6 458/1/6 460/1/6
