# MagicaVoxel @ ephtracy

# material
mtllib arrow.mtl
usemtl palette

# normals
vn -1 0 0
vn 1 0 0
vn 0 0 1
vn 0 0 -1
vn 0 -1 0
vn 0 1 0

# texcoords
vt 0.0449219 0.5
vt 0.857422 0.5
vt 0.958984 0.5

# verts and faces
v -3.5 0 -7
v -3.5 0 -8
v -3.5 1 -7
v -3.5 1 -8
f -2/1/1 -3/1/1 -4/1/1
f -1/1/1 -3/1/1 -2/1/1
v -2.5 0 11
v -2.5 0 10
v -2.5 0 -6
v -2.5 0 -7
v -2.5 0 -8
v -2.5 0 -9
v -2.5 1 11
v -2.5 1 10
v -2.5 1 -6
v -2.5 1 -7
v -2.5 1 -8
v -2.5 1 -9
f -6/2/1 -11/2/1 -12/2/1
f -5/2/1 -11/2/1 -6/2/1
f -4/1/1 -9/1/1 -10/1/1
f -3/1/1 -9/1/1 -4/1/1
f -2/1/1 -7/1/1 -8/1/1
f -1/1/1 -7/1/1 -2/1/1
v -1.5 0 10
v -1.5 0 9
v -1.5 0 -9
v -1.5 0 -10
v -1.5 1 10
v -1.5 1 9
v -1.5 1 -9
v -1.5 1 -10
f -4/2/1 -7/2/1 -8/2/1
f -3/2/1 -7/2/1 -4/2/1
f -2/1/1 -5/1/1 -6/1/1
f -1/1/1 -5/1/1 -2/1/1
v -0.5 0 11
v -0.5 0 10
v -0.5 0 9
v -0.5 0 -7
v -0.5 0 -10
v -0.5 0 -11
v -0.5 1 11
v -0.5 1 10
v -0.5 1 9
v -0.5 1 -7
v -0.5 1 -10
v -0.5 1 -11
f -6/2/1 -11/2/1 -12/2/1
f -5/2/1 -11/2/1 -6/2/1
f -4/3/1 -9/3/1 -10/3/1
f -3/3/1 -9/3/1 -4/3/1
f -2/1/1 -7/1/1 -8/1/1
f -1/1/1 -7/1/1 -2/1/1
v 1.5 0 11
v 1.5 0 10
v 1.5 0 -6
v 1.5 0 -7
v 1.5 1 11
v 1.5 1 10
v 1.5 1 -6
v 1.5 1 -7
f -4/2/1 -7/2/1 -8/2/1
f -3/2/1 -7/2/1 -4/2/1
f -2/1/1 -5/1/1 -6/1/1
f -1/1/1 -5/1/1 -2/1/1
v -1.5 0 11
v -1.5 0 10
v -1.5 0 -6
v -1.5 0 -7
v -1.5 1 11
v -1.5 1 10
v -1.5 1 -6
v -1.5 1 -7
f -8/2/2 -7/2/2 -4/2/2
f -4/2/2 -7/2/2 -3/2/2
f -6/1/2 -5/1/2 -2/1/2
f -2/1/2 -5/1/2 -1/1/2
v 0.5 0 11
v 0.5 0 10
v 0.5 0 9
v 0.5 0 -7
v 0.5 0 -10
v 0.5 0 -11
v 0.5 1 11
v 0.5 1 10
v 0.5 1 9
v 0.5 1 -7
v 0.5 1 -10
v 0.5 1 -11
f -12/2/2 -11/2/2 -6/2/2
f -6/2/2 -11/2/2 -5/2/2
f -10/3/2 -9/3/2 -4/3/2
f -4/3/2 -9/3/2 -3/3/2
f -8/1/2 -7/1/2 -2/1/2
f -2/1/2 -7/1/2 -1/1/2
v 1.5 0 10
v 1.5 0 9
v 1.5 0 -9
v 1.5 0 -10
v 1.5 1 10
v 1.5 1 9
v 1.5 1 -9
v 1.5 1 -10
f -8/2/2 -7/2/2 -4/2/2
f -4/2/2 -7/2/2 -3/2/2
f -6/1/2 -5/1/2 -2/1/2
f -2/1/2 -5/1/2 -1/1/2
v 2.5 0 11
v 2.5 0 10
v 2.5 0 -6
v 2.5 0 -7
v 2.5 0 -8
v 2.5 0 -9
v 2.5 1 11
v 2.5 1 10
v 2.5 1 -6
v 2.5 1 -7
v 2.5 1 -8
v 2.5 1 -9
f -12/2/2 -11/2/2 -6/2/2
f -6/2/2 -11/2/2 -5/2/2
f -10/1/2 -9/1/2 -4/1/2
f -4/1/2 -9/1/2 -3/1/2
f -8/1/2 -7/1/2 -2/1/2
f -2/1/2 -7/1/2 -1/1/2
v 3.5 0 -7
v 3.5 0 -8
v 3.5 1 -7
v 3.5 1 -8
f -4/1/2 -3/1/2 -2/1/2
f -2/1/2 -3/1/2 -1/1/2
v -2.5 0 11
v -2.5 1 11
v -1.5 0 11
v -1.5 1 11
v -0.5 0 11
v -0.5 1 11
v 0.5 0 11
v 0.5 1 11
v 1.5 0 11
v 1.5 1 11
v 2.5 0 11
v 2.5 1 11
f -10/2/3 -11/2/3 -12/2/3
f -9/2/3 -11/2/3 -10/2/3
f -6/2/3 -7/2/3 -8/2/3
f -5/2/3 -7/2/3 -6/2/3
f -2/2/3 -3/2/3 -4/2/3
f -1/2/3 -3/2/3 -2/2/3
v -1.5 0 10
v -1.5 1 10
v -0.5 0 10
v -0.5 1 10
v 0.5 0 10
v 0.5 1 10
v 1.5 0 10
v 1.5 1 10
f -6/2/3 -7/2/3 -8/2/3
f -5/2/3 -7/2/3 -6/2/3
f -2/2/3 -3/2/3 -4/2/3
f -1/2/3 -3/2/3 -2/2/3
v -2.5 0 -6
v -2.5 1 -6
v -1.5 0 -6
v -1.5 1 -6
v 1.5 0 -6
v 1.5 1 -6
v 2.5 0 -6
v 2.5 1 -6
f -6/1/3 -7/1/3 -8/1/3
f -5/1/3 -7/1/3 -6/1/3
f -2/1/3 -3/1/3 -4/1/3
f -1/1/3 -3/1/3 -2/1/3
v -3.5 0 -7
v -3.5 1 -7
v -2.5 0 -7
v -2.5 1 -7
v -1.5 0 -7
v -1.5 1 -7
v -0.5 0 -7
v -0.5 1 -7
v 0.5 0 -7
v 0.5 1 -7
v 1.5 0 -7
v 1.5 1 -7
v 2.5 0 -7
v 2.5 1 -7
v 3.5 0 -7
v 3.5 1 -7
f -14/1/3 -15/1/3 -16/1/3
f -13/1/3 -15/1/3 -14/1/3
f -10/1/3 -11/1/3 -12/1/3
f -9/1/3 -11/1/3 -10/1/3
f -6/1/3 -7/1/3 -8/1/3
f -5/1/3 -7/1/3 -6/1/3
f -2/1/3 -3/1/3 -4/1/3
f -1/1/3 -3/1/3 -2/1/3
v -2.5 0 10
v -2.5 1 10
v -1.5 0 10
v -1.5 1 10
v 1.5 0 10
v 1.5 1 10
v 2.5 0 10
v 2.5 1 10
f -8/2/4 -7/2/4 -6/2/4
f -6/2/4 -7/2/4 -5/2/4
f -4/2/4 -3/2/4 -2/2/4
f -2/2/4 -3/2/4 -1/2/4
v -1.5 0 9
v -1.5 1 9
v -0.5 0 9
v -0.5 1 9
v 0.5 0 9
v 0.5 1 9
v 1.5 0 9
v 1.5 1 9
f -8/2/4 -7/2/4 -6/2/4
f -6/2/4 -7/2/4 -5/2/4
f -4/2/4 -3/2/4 -2/2/4
f -2/2/4 -3/2/4 -1/2/4
v -3.5 0 -8
v -3.5 1 -8
v -2.5 0 -8
v -2.5 1 -8
v 2.5 0 -8
v 2.5 1 -8
v 3.5 0 -8
v 3.5 1 -8
f -8/1/4 -7/1/4 -6/1/4
f -6/1/4 -7/1/4 -5/1/4
f -4/1/4 -3/1/4 -2/1/4
f -2/1/4 -3/1/4 -1/1/4
v -2.5 0 -9
v -2.5 1 -9
v -1.5 0 -9
v -1.5 1 -9
v 1.5 0 -9
v 1.5 1 -9
v 2.5 0 -9
v 2.5 1 -9
f -8/1/4 -7/1/4 -6/1/4
f -6/1/4 -7/1/4 -5/1/4
f -4/1/4 -3/1/4 -2/1/4
f -2/1/4 -3/1/4 -1/1/4
v -1.5 0 -10
v -1.5 1 -10
v -0.5 0 -10
v -0.5 1 -10
v 0.5 0 -10
v 0.5 1 -10
v 1.5 0 -10
v 1.5 1 -10
f -8/1/4 -7/1/4 -6/1/4
f -6/1/4 -7/1/4 -5/1/4
f -4/1/4 -3/1/4 -2/1/4
f -2/1/4 -3/1/4 -1/1/4
v -0.5 0 -11
v -0.5 1 -11
v 0.5 0 -11
v 0.5 1 -11
f -4/1/4 -3/1/4 -2/1/4
f -2/1/4 -3/1/4 -1/1/4
v -2.5 0 11
v -1.5 0 11
v -0.5 0 11
v 0.5 0 11
v 1.5 0 11
v 2.5 0 11
v -2.5 0 10
v -1.5 0 10
v -0.5 0 10
v 0.5 0 10
v 1.5 0 10
v 2.5 0 10
v -1.5 0 9
v -0.5 0 9
v 0.5 0 9
v 1.5 0 9
v -2.5 0 -6
v -1.5 0 -6
v 1.5 0 -6
v 2.5 0 -6
v -3.5 0 -7
v -2.5 0 -7
v -1.5 0 -7
v -0.5 0 -7
v 0.5 0 -7
v 1.5 0 -7
v 2.5 0 -7
v 3.5 0 -7
v -3.5 0 -8
v -2.5 0 -8
v -0.5 0 -8
v 0.5 0 -8
v 2.5 0 -8
v 3.5 0 -8
v -2.5 0 -9
v -1.5 0 -9
v 1.5 0 -9
v 2.5 0 -9
v -1.5 0 -10
v -0.5 0 -10
v 0.5 0 -10
v 1.5 0 -10
v -0.5 0 -11
v 0.5 0 -11
f -38/2/5 -43/2/5 -44/2/5
f -37/2/5 -43/2/5 -38/2/5
f -36/2/5 -41/2/5 -42/2/5
f -35/2/5 -41/2/5 -36/2/5
f -34/2/5 -39/2/5 -40/2/5
f -33/2/5 -39/2/5 -34/2/5
f -32/2/5 -35/2/5 -36/2/5
f -32/2/5 -34/2/5 -35/2/5
f -32/2/5 -36/2/5 -37/2/5
f -31/2/5 -34/2/5 -32/2/5
f -30/2/5 -34/2/5 -31/2/5
f -29/2/5 -34/2/5 -30/2/5
f -23/1/5 -27/1/5 -28/1/5
f -22/1/5 -27/1/5 -23/1/5
f -21/3/5 -30/3/5 -31/3/5
f -20/3/5 -30/3/5 -21/3/5
f -19/1/5 -25/1/5 -26/1/5
f -18/1/5 -25/1/5 -19/1/5
f -16/1/5 -22/1/5 -23/1/5
f -16/1/5 -23/1/5 -24/1/5
f -16/1/5 -21/1/5 -22/1/5
f -15/1/5 -21/1/5 -16/1/5
f -14/3/5 -20/3/5 -21/3/5
f -14/1/5 -21/1/5 -15/1/5
f -13/1/5 -18/1/5 -19/1/5
f -13/3/5 -20/3/5 -14/3/5
f -13/1/5 -17/1/5 -18/1/5
f -13/1/5 -19/1/5 -20/1/5
f -12/1/5 -17/1/5 -13/1/5
f -11/1/5 -17/1/5 -12/1/5
f -10/1/5 -14/1/5 -15/1/5
f -10/1/5 -12/1/5 -13/1/5
f -10/1/5 -13/1/5 -14/1/5
f -9/1/5 -12/1/5 -10/1/5
f -8/1/5 -12/1/5 -9/1/5
f -7/1/5 -12/1/5 -8/1/5
f -6/1/5 -8/1/5 -9/1/5
f -5/1/5 -8/1/5 -6/1/5
f -4/1/5 -8/1/5 -5/1/5
f -3/1/5 -8/1/5 -4/1/5
f -2/1/5 -4/1/5 -5/1/5
f -1/1/5 -4/1/5 -2/1/5
v -2.5 1 11
v -1.5 1 11
v -0.5 1 11
v 0.5 1 11
v 1.5 1 11
v 2.5 1 11
v -2.5 1 10
v -1.5 1 10
v -0.5 1 10
v 0.5 1 10
v 1.5 1 10
v 2.5 1 10
v -1.5 1 9
v -0.5 1 9
v 0.5 1 9
v 1.5 1 9
v -2.5 1 -6
v -1.5 1 -6
v 1.5 1 -6
v 2.5 1 -6
v -3.5 1 -7
v -2.5 1 -7
v -1.5 1 -7
v -0.5 1 -7
v 0.5 1 -7
v 1.5 1 -7
v 2.5 1 -7
v 3.5 1 -7
v -3.5 1 -8
v -2.5 1 -8
v -0.5 1 -8
v 0.5 1 -8
v 2.5 1 -8
v 3.5 1 -8
v -2.5 1 -9
v -1.5 1 -9
v 1.5 1 -9
v 2.5 1 -9
v -1.5 1 -10
v -0.5 1 -10
v 0.5 1 -10
v 1.5 1 -10
v -0.5 1 -11
v 0.5 1 -11
f -44/2/6 -43/2/6 -38/2/6
f -38/2/6 -43/2/6 -37/2/6
f -42/2/6 -41/2/6 -36/2/6
f -36/2/6 -41/2/6 -35/2/6
f -40/2/6 -39/2/6 -34/2/6
f -34/2/6 -39/2/6 -33/2/6
f -36/2/6 -35/2/6 -32/2/6
f -35/2/6 -34/2/6 -32/2/6
f -37/2/6 -36/2/6 -32/2/6
f -32/2/6 -34/2/6 -31/2/6
f -31/2/6 -34/2/6 -30/2/6
f -30/2/6 -34/2/6 -29/2/6
f -28/1/6 -27/1/6 -23/1/6
f -23/1/6 -27/1/6 -22/1/6
f -31/3/6 -30/3/6 -21/3/6
f -21/3/6 -30/3/6 -20/3/6
f -26/1/6 -25/1/6 -19/1/6
f -19/1/6 -25/1/6 -18/1/6
f -23/1/6 -22/1/6 -16/1/6
f -24/1/6 -23/1/6 -16/1/6
f -22/1/6 -21/1/6 -16/1/6
f -16/1/6 -21/1/6 -15/1/6
f -21/3/6 -20/3/6 -14/3/6
f -15/1/6 -21/1/6 -14/1/6
f -19/1/6 -18/1/6 -13/1/6
f -14/3/6 -20/3/6 -13/3/6
f -18/1/6 -17/1/6 -13/1/6
f -20/1/6 -19/1/6 -13/1/6
f -13/1/6 -17/1/6 -12/1/6
f -12/1/6 -17/1/6 -11/1/6
f -15/1/6 -14/1/6 -10/1/6
f -13/1/6 -12/1/6 -10/1/6
f -14/1/6 -13/1/6 -10/1/6
f -10/1/6 -12/1/6 -9/1/6
f -9/1/6 -12/1/6 -8/1/6
f -8/1/6 -12/1/6 -7/1/6
f -9/1/6 -8/1/6 -6/1/6
f -6/1/6 -8/1/6 -5/1/6
f -5/1/6 -8/1/6 -4/1/6
f -4/1/6 -8/1/6 -3/1/6
f -5/1/6 -4/1/6 -2/1/6
f -2/1/6 -4/1/6 -1/1/6
