# MagicaVoxel @ ephtracy

# material
mtllib bow-1.mtl
usemtl palette

# normals
vn -1 0 0
vn 1 0 0
vn 0 0 1
vn 0 0 -1
vn 0 -1 0
vn 0 1 0

# texcoords
vt 0.0214844 0.5
vt 0.751953 0.5
vt 0.853516 0.5
vt 0.958984 0.5

# verts and faces
v -23 14 1.5
v -23 14 -1.5
v -23 15 1.5
v -23 15 -1.5
f -2/1/1 -3/1/1 -4/1/1
f -1/1/1 -3/1/1 -2/1/1
v -22 13 1.5
v -22 13 -1.5
v -22 14 1.5
v -22 14 -1.5
f -2/1/1 -3/1/1 -4/1/1
f -1/1/1 -3/1/1 -2/1/1
v -21 10 1.5
v -21 10 -1.5
v -21 13 1.5
v -21 13 -1.5
f -2/3/1 -3/3/1 -4/3/1
f -1/3/1 -3/3/1 -2/3/1
v -20 9 1.5
v -20 9 -1.5
v -20 10 1.5
v -20 10 -1.5
f -2/3/1 -3/3/1 -4/3/1
f -1/3/1 -3/3/1 -2/3/1
v -18 8 1.5
v -18 8 -1.5
v -18 9 1.5
v -18 9 -1.5
f -2/3/1 -3/3/1 -4/3/1
f -1/3/1 -3/3/1 -2/3/1
v -17 7 1.5
v -17 7 -1.5
v -17 8 1.5
v -17 8 -1.5
f -2/3/1 -3/3/1 -4/3/1
f -1/3/1 -3/3/1 -2/3/1
v -16 6 1.5
v -16 6 -1.5
v -16 7 1.5
v -16 7 -1.5
f -2/3/1 -3/3/1 -4/3/1
f -1/3/1 -3/3/1 -2/3/1
v -15 5 1.5
v -15 5 -1.5
v -15 6 1.5
v -15 6 -1.5
f -2/3/1 -3/3/1 -4/3/1
f -1/3/1 -3/3/1 -2/3/1
v -13 4 1.5
v -13 4 -1.5
v -13 5 1.5
v -13 5 -1.5
f -2/3/1 -3/3/1 -4/3/1
f -1/3/1 -3/3/1 -2/3/1
v -11 3 1.5
v -11 3 -1.5
v -11 4 1.5
v -11 4 -1.5
f -2/3/1 -3/3/1 -4/3/1
f -1/3/1 -3/3/1 -2/3/1
v -10 0 0.5
v -10 0 -0.5
v -10 1 1.5
v -10 1 0.5
v -10 1 -0.5
v -10 1 -1.5
v -10 3 1.5
v -10 3 -1.5
v -10 5 1.5
v -10 5 -1.5
v -10 6 1.5
v -10 6 -1.5
f -9/1/1 -11/1/1 -12/1/1
f -8/1/1 -11/1/1 -9/1/1
f -6/1/1 -9/1/1 -10/1/1
f -6/1/1 -7/1/1 -8/1/1
f -6/1/1 -8/1/1 -9/1/1
f -5/1/1 -7/1/1 -6/1/1
f -2/1/1 -3/1/1 -4/1/1
f -1/1/1 -3/1/1 -2/1/1
v -9 2 2.5
v -9 2 1.5
v -9 2 -1.5
v -9 2 -2.5
v -9 5 2.5
v -9 5 1.5
v -9 5 -1.5
v -9 5 -2.5
f -4/2/1 -7/2/1 -8/2/1
f -3/2/1 -7/2/1 -4/2/1
f -2/2/1 -5/2/1 -6/2/1
f -1/2/1 -5/2/1 -2/2/1
v 2 2 1.5
v 2 2 -1.5
v 2 3 1.5
v 2 3 -1.5
f -2/2/1 -3/2/1 -4/2/1
f -1/2/1 -3/2/1 -2/2/1
v 3 3 2.5
v 3 3 1.5
v 3 3 -1.5
v 3 3 -2.5
v 3 4 2.5
v 3 4 1.5
v 3 4 -1.5
v 3 4 -2.5
f -4/2/1 -7/2/1 -8/2/1
f -3/2/1 -7/2/1 -4/2/1
f -2/2/1 -5/2/1 -6/2/1
f -1/2/1 -5/2/1 -2/2/1
v 5 4 1.5
v 5 4 -1.5
v 5 4 -2.5
v 5 5 1.5
v 5 5 -2.5
f -2/2/1 -4/2/1 -5/2/1
f -2/2/1 -3/2/1 -4/2/1
f -1/2/1 -3/2/1 -2/2/1
v 9 2 2.5
v 9 2 1.5
v 9 2 -1.5
v 9 2 -2.5
v 9 3 2.5
v 9 3 1.5
v 9 3 -1.5
v 9 3 -2.5
v 9 4 2.5
v 9 4 1.5
v 9 5 2.5
v 9 5 1.5
f -8/2/1 -11/2/1 -12/2/1
f -7/2/1 -11/2/1 -8/2/1
f -6/2/1 -9/2/1 -10/2/1
f -5/2/1 -9/2/1 -6/2/1
f -2/2/1 -3/2/1 -4/2/1
f -1/2/1 -3/2/1 -2/2/1
v 10 0 0.5
v 10 0 -0.5
v 10 1 1.5
v 10 1 0.5
v 10 1 -0.5
v 10 1 -1.5
v 10 2 1.5
v 10 2 -1.5
v 10 5 1.5
v 10 5 -1.5
v 10 6 1.5
v 10 6 -1.5
f -9/1/1 -11/1/1 -12/1/1
f -8/1/1 -11/1/1 -9/1/1
f -6/1/1 -9/1/1 -10/1/1
f -6/1/1 -7/1/1 -8/1/1
f -6/1/1 -8/1/1 -9/1/1
f -5/1/1 -7/1/1 -6/1/1
f -2/1/1 -3/1/1 -4/1/1
f -1/1/1 -3/1/1 -2/1/1
v 12 5 1.5
v 12 5 -1.5
v 12 6 1.5
v 12 6 -1.5
f -2/3/1 -3/3/1 -4/3/1
f -1/3/1 -3/3/1 -2/3/1
v 13 6 1.5
v 13 6 -1.5
v 13 7 1.5
v 13 7 -1.5
f -2/3/1 -3/3/1 -4/3/1
f -1/3/1 -3/3/1 -2/3/1
v 14 7 1.5
v 14 7 -1.5
v 14 8 1.5
v 14 8 -1.5
f -2/3/1 -3/3/1 -4/3/1
f -1/3/1 -3/3/1 -2/3/1
v 15 8 1.5
v 15 8 -1.5
v 15 9 1.5
v 15 9 -1.5
f -2/3/1 -3/3/1 -4/3/1
f -1/3/1 -3/3/1 -2/3/1
v 16 9 1.5
v 16 9 -1.5
v 16 10 1.5
v 16 10 -1.5
f -2/3/1 -3/3/1 -4/3/1
f -1/3/1 -3/3/1 -2/3/1
v 18 10 1.5
v 18 10 -1.5
v 18 11 1.5
v 18 11 -1.5
f -2/3/1 -3/3/1 -4/3/1
f -1/3/1 -3/3/1 -2/3/1
v 19 11 1.5
v 19 11 -1.5
v 19 12 1.5
v 19 12 -1.5
f -2/3/1 -3/3/1 -4/3/1
f -1/3/1 -3/3/1 -2/3/1
v 20 12 1.5
v 20 12 -1.5
v 20 15 1.5
v 20 15 -1.5
f -2/3/1 -3/3/1 -4/3/1
f -1/3/1 -3/3/1 -2/3/1
v -20 12 1.5
v -20 12 -1.5
v -20 15 1.5
v -20 15 -1.5
f -4/3/2 -3/3/2 -2/3/2
f -2/3/2 -3/3/2 -1/3/2
v -19 11 1.5
v -19 11 -1.5
v -19 12 1.5
v -19 12 -1.5
f -4/3/2 -3/3/2 -2/3/2
f -2/3/2 -3/3/2 -1/3/2
v -18 10 1.5
v -18 10 -1.5
v -18 11 1.5
v -18 11 -1.5
f -4/3/2 -3/3/2 -2/3/2
f -2/3/2 -3/3/2 -1/3/2
v -16 9 1.5
v -16 9 -1.5
v -16 10 1.5
v -16 10 -1.5
f -4/3/2 -3/3/2 -2/3/2
f -2/3/2 -3/3/2 -1/3/2
v -15 8 1.5
v -15 8 -1.5
v -15 9 1.5
v -15 9 -1.5
f -4/3/2 -3/3/2 -2/3/2
f -2/3/2 -3/3/2 -1/3/2
v -14 7 1.5
v -14 7 -1.5
v -14 8 1.5
v -14 8 -1.5
f -4/3/2 -3/3/2 -2/3/2
f -2/3/2 -3/3/2 -1/3/2
v -13 6 1.5
v -13 6 -1.5
v -13 7 1.5
v -13 7 -1.5
f -4/3/2 -3/3/2 -2/3/2
f -2/3/2 -3/3/2 -1/3/2
v -11 5 1.5
v -11 5 -1.5
v -11 6 1.5
v -11 6 -1.5
f -4/3/2 -3/3/2 -2/3/2
f -2/3/2 -3/3/2 -1/3/2
v -9 0 0.5
v -9 0 -0.5
v -9 1 1.5
v -9 1 0.5
v -9 1 -0.5
v -9 1 -1.5
v -9 2 1.5
v -9 2 -1.5
v -9 5 1.5
v -9 5 -1.5
v -9 6 1.5
v -9 6 -1.5
f -12/1/2 -11/1/2 -9/1/2
f -9/1/2 -11/1/2 -8/1/2
f -10/1/2 -9/1/2 -6/1/2
f -8/1/2 -7/1/2 -6/1/2
f -9/1/2 -8/1/2 -6/1/2
f -6/1/2 -7/1/2 -5/1/2
f -4/1/2 -3/1/2 -2/1/2
f -2/1/2 -3/1/2 -1/1/2
v -8 2 2.5
v -8 2 1.5
v -8 2 -1.5
v -8 2 -2.5
v -8 3 2.5
v -8 3 1.5
v -8 3 -1.5
v -8 3 -2.5
v -8 4 2.5
v -8 4 1.5
v -8 5 2.5
v -8 5 1.5
f -12/2/2 -11/2/2 -8/2/2
f -8/2/2 -11/2/2 -7/2/2
f -10/2/2 -9/2/2 -6/2/2
f -6/2/2 -9/2/2 -5/2/2
f -4/2/2 -3/2/2 -2/2/2
f -2/2/2 -3/2/2 -1/2/2
v -4 4 1.5
v -4 4 -1.5
v -4 4 -2.5
v -4 5 1.5
v -4 5 -2.5
f -5/2/2 -4/2/2 -2/2/2
f -4/2/2 -3/2/2 -2/2/2
f -2/2/2 -3/2/2 -1/2/2
v -2 3 2.5
v -2 3 1.5
v -2 3 -1.5
v -2 3 -2.5
v -2 4 2.5
v -2 4 1.5
v -2 4 -1.5
v -2 4 -2.5
f -8/2/2 -7/2/2 -4/2/2
f -4/2/2 -7/2/2 -3/2/2
f -6/2/2 -5/2/2 -2/2/2
f -2/2/2 -5/2/2 -1/2/2
v -1 2 1.5
v -1 2 -1.5
v -1 3 1.5
v -1 3 -1.5
f -4/2/2 -3/2/2 -2/2/2
f -2/2/2 -3/2/2 -1/2/2
v 10 2 2.5
v 10 2 1.5
v 10 2 -1.5
v 10 2 -2.5
v 10 5 2.5
v 10 5 1.5
v 10 5 -1.5
v 10 5 -2.5
f -8/2/2 -7/2/2 -4/2/2
f -4/2/2 -7/2/2 -3/2/2
f -6/2/2 -5/2/2 -2/2/2
f -2/2/2 -5/2/2 -1/2/2
v 11 0 0.5
v 11 0 -0.5
v 11 1 1.5
v 11 1 0.5
v 11 1 -0.5
v 11 1 -1.5
v 11 3 1.5
v 11 3 -1.5
v 11 5 1.5
v 11 5 -1.5
v 11 6 1.5
v 11 6 -1.5
f -12/1/2 -11/1/2 -9/1/2
f -9/1/2 -11/1/2 -8/1/2
f -10/1/2 -9/1/2 -6/1/2
f -8/1/2 -7/1/2 -6/1/2
f -9/1/2 -8/1/2 -6/1/2
f -6/1/2 -7/1/2 -5/1/2
f -4/1/2 -3/1/2 -2/1/2
f -2/1/2 -3/1/2 -1/1/2
v 12 3 1.5
v 12 3 -1.5
v 12 4 1.5
v 12 4 -1.5
f -4/3/2 -3/3/2 -2/3/2
f -2/3/2 -3/3/2 -1/3/2
v 14 4 1.5
v 14 4 -1.5
v 14 5 1.5
v 14 5 -1.5
f -4/3/2 -3/3/2 -2/3/2
f -2/3/2 -3/3/2 -1/3/2
v 15 5 1.5
v 15 5 -1.5
v 15 6 1.5
v 15 6 -1.5
f -4/3/2 -3/3/2 -2/3/2
f -2/3/2 -3/3/2 -1/3/2
v 16 6 1.5
v 16 6 -1.5
v 16 7 1.5
v 16 7 -1.5
f -4/3/2 -3/3/2 -2/3/2
f -2/3/2 -3/3/2 -1/3/2
v 17 7 1.5
v 17 7 -1.5
v 17 8 1.5
v 17 8 -1.5
f -4/3/2 -3/3/2 -2/3/2
f -2/3/2 -3/3/2 -1/3/2
v 18 8 1.5
v 18 8 -1.5
v 18 9 1.5
v 18 9 -1.5
f -4/3/2 -3/3/2 -2/3/2
f -2/3/2 -3/3/2 -1/3/2
v 20 9 1.5
v 20 9 -1.5
v 20 10 1.5
v 20 10 -1.5
f -4/3/2 -3/3/2 -2/3/2
f -2/3/2 -3/3/2 -1/3/2
v 21 10 1.5
v 21 10 -1.5
v 21 13 1.5
v 21 13 -1.5
f -4/3/2 -3/3/2 -2/3/2
f -2/3/2 -3/3/2 -1/3/2
v 22 13 1.5
v 22 13 -1.5
v 22 14 1.5
v 22 14 -1.5
f -4/1/2 -3/1/2 -2/1/2
f -2/1/2 -3/1/2 -1/1/2
v 23 14 1.5
v 23 14 -1.5
v 23 15 1.5
v 23 15 -1.5
f -4/1/2 -3/1/2 -2/1/2
f -2/1/2 -3/1/2 -1/1/2
v -9 2 2.5
v -9 5 2.5
v -8 2 2.5
v -8 3 2.5
v -8 4 2.5
v -8 5 2.5
v -2 3 2.5
v -2 4 2.5
v 3 3 2.5
v 3 4 2.5
v 9 2 2.5
v 9 3 2.5
v 9 4 2.5
v 9 5 2.5
v 10 2 2.5
v 10 5 2.5
f -14/2/3 -15/2/3 -16/2/3
f -13/2/3 -15/2/3 -14/2/3
f -12/2/3 -15/2/3 -13/2/3
f -11/2/3 -15/2/3 -12/2/3
f -10/2/3 -12/2/3 -13/2/3
f -9/2/3 -12/2/3 -10/2/3
f -5/2/3 -7/2/3 -8/2/3
f -4/2/3 -7/2/3 -5/2/3
f -2/2/3 -4/2/3 -5/2/3
f -2/2/3 -3/2/3 -4/2/3
f -2/2/3 -5/2/3 -6/2/3
f -1/2/3 -3/2/3 -2/2/3
v -23 14 1.5
v -23 15 1.5
v -22 13 1.5
v -22 14 1.5
v -21 10 1.5
v -21 13 1.5
v -21 15 1.5
v -20 9 1.5
v -20 10 1.5
v -20 12 1.5
v -20 15 1.5
v -19 11 1.5
v -19 12 1.5
v -18 8 1.5
v -18 9 1.5
v -18 10 1.5
v -18 11 1.5
v -17 7 1.5
v -17 8 1.5
v -16 6 1.5
v -16 7 1.5
v -16 9 1.5
v -16 10 1.5
v -15 5 1.5
v -15 6 1.5
v -15 8 1.5
v -15 9 1.5
v -14 7 1.5
v -14 8 1.5
v -13 4 1.5
v -13 5 1.5
v -13 6 1.5
v -13 7 1.5
v -11 3 1.5
v -11 4 1.5
v -11 5 1.5
v -11 6 1.5
v -10 1 1.5
v -10 3 1.5
v -10 5 1.5
v -10 6 1.5
v -9 1 1.5
v -9 2 1.5
v -9 5 1.5
v -9 6 1.5
v -8 2 1.5
v -8 3 1.5
v -8 4 1.5
v -8 5 1.5
v -4 4 1.5
v -4 5 1.5
v -2 3 1.5
v -2 4 1.5
v -1 2 1.5
v -1 3 1.5
v 2 2 1.5
v 2 3 1.5
v 3 3 1.5
v 3 4 1.5
v 5 4 1.5
v 5 5 1.5
v 9 2 1.5
v 9 3 1.5
v 9 4 1.5
v 9 5 1.5
v 10 1 1.5
v 10 2 1.5
v 10 5 1.5
v 10 6 1.5
v 11 1 1.5
v 11 3 1.5
v 11 5 1.5
v 11 6 1.5
v 12 3 1.5
v 12 4 1.5
v 12 5 1.5
v 12 6 1.5
v 13 6 1.5
v 13 7 1.5
v 14 4 1.5
v 14 5 1.5
v 14 7 1.5
v 14 8 1.5
v 15 5 1.5
v 15 6 1.5
v 15 8 1.5
v 15 9 1.5
v 16 6 1.5
v 16 7 1.5
v 16 9 1.5
v 16 10 1.5
v 17 7 1.5
v 17 8 1.5
v 18 8 1.5
v 18 9 1.5
v 18 10 1.5
v 18 11 1.5
v 19 11 1.5
v 19 12 1.5
v 20 9 1.5
v 20 10 1.5
v 20 12 1.5
v 20 15 1.5
v 21 10 1.5
v 21 13 1.5
v 21 15 1.5
v 22 13 1.5
v 22 14 1.5
v 23 14 1.5
v 23 15 1.5
f -107/1/3 -109/1/3 -110/1/3
f -105/1/3 -107/1/3 -108/1/3
f -104/1/3 -109/1/3 -107/1/3
f -104/1/3 -107/1/3 -105/1/3
f -102/3/3 -105/3/3 -106/3/3
f -102/3/3 -104/3/3 -105/3/3
f -101/3/3 -104/3/3 -102/3/3
f -100/3/3 -104/3/3 -101/3/3
f -99/3/3 -102/3/3 -103/3/3
f -99/3/3 -101/3/3 -102/3/3
f -98/3/3 -101/3/3 -99/3/3
f -96/3/3 -99/3/3 -103/3/3
f -95/3/3 -99/3/3 -96/3/3
f -94/3/3 -99/3/3 -95/3/3
f -92/3/3 -96/3/3 -97/3/3
f -92/3/3 -95/3/3 -96/3/3
f -90/3/3 -92/3/3 -93/3/3
f -89/3/3 -95/3/3 -92/3/3
f -89/3/3 -92/3/3 -90/3/3
f -88/3/3 -95/3/3 -89/3/3
f -86/3/3 -90/3/3 -91/3/3
f -86/3/3 -89/3/3 -90/3/3
f -85/3/3 -89/3/3 -86/3/3
f -84/3/3 -89/3/3 -85/3/3
f -83/3/3 -86/3/3 -87/3/3
f -83/3/3 -85/3/3 -86/3/3
f -82/3/3 -85/3/3 -83/3/3
f -80/3/3 -83/3/3 -87/3/3
f -79/3/3 -83/3/3 -80/3/3
f -78/3/3 -83/3/3 -79/3/3
f -76/3/3 -80/3/3 -81/3/3
f -76/3/3 -79/3/3 -80/3/3
f -75/3/3 -79/3/3 -76/3/3
f -74/3/3 -79/3/3 -75/3/3
f -72/3/3 -76/3/3 -77/3/3
f -72/3/3 -75/3/3 -76/3/3
f -71/3/3 -75/3/3 -72/3/3
f -69/1/3 -72/1/3 -73/1/3
f -69/1/3 -70/1/3 -71/1/3
f -69/1/3 -71/1/3 -72/1/3
f -68/1/3 -70/1/3 -69/1/3
f -67/1/3 -70/1/3 -68/1/3
f -66/1/3 -70/1/3 -67/1/3
f -61/2/3 -62/2/3 -63/2/3
f -60/2/3 -62/2/3 -61/2/3
f -59/2/3 -64/2/3 -65/2/3
f -57/2/3 -59/2/3 -65/2/3
f -56/4/3 -58/4/3 -59/4/3
f -56/2/3 -59/2/3 -57/2/3
f -54/4/3 -58/4/3 -56/4/3
f -53/4/3 -58/4/3 -54/4/3
f -53/2/3 -54/2/3 -55/2/3
f -52/4/3 -58/4/3 -53/4/3
f -49/2/3 -53/2/3 -55/2/3
f -48/2/3 -53/2/3 -49/2/3
f -47/2/3 -50/2/3 -51/2/3
f -46/2/3 -50/2/3 -47/2/3
f -41/1/3 -43/1/3 -44/1/3
f -41/1/3 -42/1/3 -43/1/3
f -41/1/3 -44/1/3 -45/1/3
f -40/1/3 -42/1/3 -41/1/3
f -39/1/3 -42/1/3 -40/1/3
f -38/1/3 -42/1/3 -39/1/3
f -37/3/3 -39/3/3 -40/3/3
f -36/3/3 -39/3/3 -37/3/3
f -35/3/3 -39/3/3 -36/3/3
f -33/3/3 -34/3/3 -35/3/3
f -33/3/3 -35/3/3 -36/3/3
f -31/3/3 -33/3/3 -36/3/3
f -31/3/3 -32/3/3 -33/3/3
f -30/3/3 -32/3/3 -31/3/3
f -29/3/3 -32/3/3 -30/3/3
f -27/3/3 -29/3/3 -30/3/3
f -27/3/3 -28/3/3 -29/3/3
f -26/3/3 -28/3/3 -27/3/3
f -25/3/3 -28/3/3 -26/3/3
f -23/3/3 -25/3/3 -26/3/3
f -23/3/3 -24/3/3 -25/3/3
f -22/3/3 -24/3/3 -23/3/3
f -21/3/3 -24/3/3 -22/3/3
f -19/3/3 -21/3/3 -22/3/3
f -19/3/3 -20/3/3 -21/3/3
f -18/3/3 -20/3/3 -19/3/3
f -17/3/3 -20/3/3 -18/3/3
f -16/3/3 -20/3/3 -17/3/3
f -15/3/3 -20/3/3 -16/3/3
f -13/3/3 -15/3/3 -16/3/3
f -13/3/3 -14/3/3 -15/3/3
f -11/3/3 -13/3/3 -16/3/3
f -11/3/3 -12/3/3 -13/3/3
f -10/3/3 -12/3/3 -11/3/3
f -9/3/3 -12/3/3 -10/3/3
f -7/3/3 -9/3/3 -10/3/3
f -7/3/3 -8/3/3 -9/3/3
f -6/3/3 -8/3/3 -7/3/3
f -5/3/3 -8/3/3 -6/3/3
f -4/1/3 -5/1/3 -6/1/3
f -3/1/3 -5/1/3 -4/1/3
f -2/1/3 -5/1/3 -3/1/3
f -1/1/3 -5/1/3 -2/1/3
v -10 0 0.5
v -10 1 0.5
v -9 0 0.5
v -9 1 0.5
v 10 0 0.5
v 10 1 0.5
v 11 0 0.5
v 11 1 0.5
f -6/1/3 -7/1/3 -8/1/3
f -5/1/3 -7/1/3 -6/1/3
f -2/1/3 -3/1/3 -4/1/3
f -1/1/3 -3/1/3 -2/1/3
v -10 0 -0.5
v -10 1 -0.5
v -9 0 -0.5
v -9 1 -0.5
v 10 0 -0.5
v 10 1 -0.5
v 11 0 -0.5
v 11 1 -0.5
f -8/1/4 -7/1/4 -6/1/4
f -6/1/4 -7/1/4 -5/1/4
f -4/1/4 -3/1/4 -2/1/4
f -2/1/4 -3/1/4 -1/1/4
v -23 14 -1.5
v -23 15 -1.5
v -22 13 -1.5
v -22 14 -1.5
v -21 10 -1.5
v -21 13 -1.5
v -21 15 -1.5
v -20 9 -1.5
v -20 10 -1.5
v -20 12 -1.5
v -20 15 -1.5
v -19 11 -1.5
v -19 12 -1.5
v -18 8 -1.5
v -18 9 -1.5
v -18 10 -1.5
v -18 11 -1.5
v -17 7 -1.5
v -17 8 -1.5
v -16 6 -1.5
v -16 7 -1.5
v -16 9 -1.5
v -16 10 -1.5
v -15 5 -1.5
v -15 6 -1.5
v -15 8 -1.5
v -15 9 -1.5
v -14 7 -1.5
v -14 8 -1.5
v -13 4 -1.5
v -13 5 -1.5
v -13 6 -1.5
v -13 7 -1.5
v -11 3 -1.5
v -11 4 -1.5
v -11 5 -1.5
v -11 6 -1.5
v -10 1 -1.5
v -10 3 -1.5
v -10 5 -1.5
v -10 6 -1.5
v -9 1 -1.5
v -9 2 -1.5
v -9 5 -1.5
v -9 6 -1.5
v -8 2 -1.5
v -8 3 -1.5
v -2 3 -1.5
v -2 4 -1.5
v -1 2 -1.5
v -1 3 -1.5
v 2 2 -1.5
v 2 3 -1.5
v 3 3 -1.5
v 3 4 -1.5
v 9 2 -1.5
v 9 3 -1.5
v 10 1 -1.5
v 10 2 -1.5
v 10 5 -1.5
v 10 6 -1.5
v 11 1 -1.5
v 11 3 -1.5
v 11 5 -1.5
v 11 6 -1.5
v 12 3 -1.5
v 12 4 -1.5
v 12 5 -1.5
v 12 6 -1.5
v 13 6 -1.5
v 13 7 -1.5
v 14 4 -1.5
v 14 5 -1.5
v 14 7 -1.5
v 14 8 -1.5
v 15 5 -1.5
v 15 6 -1.5
v 15 8 -1.5
v 15 9 -1.5
v 16 6 -1.5
v 16 7 -1.5
v 16 9 -1.5
v 16 10 -1.5
v 17 7 -1.5
v 17 8 -1.5
v 18 8 -1.5
v 18 9 -1.5
v 18 10 -1.5
v 18 11 -1.5
v 19 11 -1.5
v 19 12 -1.5
v 20 9 -1.5
v 20 10 -1.5
v 20 12 -1.5
v 20 15 -1.5
v 21 10 -1.5
v 21 13 -1.5
v 21 15 -1.5
v 22 13 -1.5
v 22 14 -1.5
v 23 14 -1.5
v 23 15 -1.5
f -102/1/4 -101/1/4 -99/1/4
f -100/1/4 -99/1/4 -97/1/4
f -99/1/4 -101/1/4 -96/1/4
f -97/1/4 -99/1/4 -96/1/4
f -98/3/4 -97/3/4 -94/3/4
f -97/3/4 -96/3/4 -94/3/4
f -94/3/4 -96/3/4 -93/3/4
f -93/3/4 -96/3/4 -92/3/4
f -95/3/4 -94/3/4 -91/3/4
f -94/3/4 -93/3/4 -91/3/4
f -91/3/4 -93/3/4 -90/3/4
f -95/3/4 -91/3/4 -88/3/4
f -88/3/4 -91/3/4 -87/3/4
f -87/3/4 -91/3/4 -86/3/4
f -89/3/4 -88/3/4 -84/3/4
f -88/3/4 -87/3/4 -84/3/4
f -85/3/4 -84/3/4 -82/3/4
f -84/3/4 -87/3/4 -81/3/4
f -82/3/4 -84/3/4 -81/3/4
f -81/3/4 -87/3/4 -80/3/4
f -83/3/4 -82/3/4 -78/3/4
f -82/3/4 -81/3/4 -78/3/4
f -78/3/4 -81/3/4 -77/3/4
f -77/3/4 -81/3/4 -76/3/4
f -79/3/4 -78/3/4 -75/3/4
f -78/3/4 -77/3/4 -75/3/4
f -75/3/4 -77/3/4 -74/3/4
f -79/3/4 -75/3/4 -72/3/4
f -72/3/4 -75/3/4 -71/3/4
f -71/3/4 -75/3/4 -70/3/4
f -73/3/4 -72/3/4 -68/3/4
f -72/3/4 -71/3/4 -68/3/4
f -68/3/4 -71/3/4 -67/3/4
f -67/3/4 -71/3/4 -66/3/4
f -69/3/4 -68/3/4 -64/3/4
f -68/3/4 -67/3/4 -64/3/4
f -64/3/4 -67/3/4 -63/3/4
f -65/1/4 -64/1/4 -61/1/4
f -63/1/4 -62/1/4 -61/1/4
f -64/1/4 -63/1/4 -61/1/4
f -61/1/4 -62/1/4 -60/1/4
f -60/1/4 -62/1/4 -59/1/4
f -59/1/4 -62/1/4 -58/1/4
f -57/2/4 -56/2/4 -55/2/4
f -57/2/4 -55/2/4 -53/2/4
f -55/4/4 -54/4/4 -52/4/4
f -53/2/4 -55/2/4 -52/2/4
f -52/4/4 -54/4/4 -50/4/4
f -50/4/4 -54/4/4 -49/4/4
f -51/2/4 -50/2/4 -49/2/4
f -49/4/4 -54/4/4 -48/4/4
f -51/2/4 -49/2/4 -47/2/4
f -47/2/4 -49/2/4 -46/2/4
f -45/1/4 -44/1/4 -41/1/4
f -43/1/4 -42/1/4 -41/1/4
f -44/1/4 -43/1/4 -41/1/4
f -41/1/4 -42/1/4 -40/1/4
f -40/1/4 -42/1/4 -39/1/4
f -39/1/4 -42/1/4 -38/1/4
f -40/3/4 -39/3/4 -37/3/4
f -37/3/4 -39/3/4 -36/3/4
f -36/3/4 -39/3/4 -35/3/4
f -35/3/4 -34/3/4 -33/3/4
f -36/3/4 -35/3/4 -33/3/4
f -36/3/4 -33/3/4 -31/3/4
f -33/3/4 -32/3/4 -31/3/4
f -31/3/4 -32/3/4 -30/3/4
f -30/3/4 -32/3/4 -29/3/4
f -30/3/4 -29/3/4 -27/3/4
f -29/3/4 -28/3/4 -27/3/4
f -27/3/4 -28/3/4 -26/3/4
f -26/3/4 -28/3/4 -25/3/4
f -26/3/4 -25/3/4 -23/3/4
f -25/3/4 -24/3/4 -23/3/4
f -23/3/4 -24/3/4 -22/3/4
f -22/3/4 -24/3/4 -21/3/4
f -22/3/4 -21/3/4 -19/3/4
f -21/3/4 -20/3/4 -19/3/4
f -19/3/4 -20/3/4 -18/3/4
f -18/3/4 -20/3/4 -17/3/4
f -17/3/4 -20/3/4 -16/3/4
f -16/3/4 -20/3/4 -15/3/4
f -16/3/4 -15/3/4 -13/3/4
f -15/3/4 -14/3/4 -13/3/4
f -16/3/4 -13/3/4 -11/3/4
f -13/3/4 -12/3/4 -11/3/4
f -11/3/4 -12/3/4 -10/3/4
f -10/3/4 -12/3/4 -9/3/4
f -10/3/4 -9/3/4 -7/3/4
f -9/3/4 -8/3/4 -7/3/4
f -7/3/4 -8/3/4 -6/3/4
f -6/3/4 -8/3/4 -5/3/4
f -6/1/4 -5/1/4 -4/1/4
f -4/1/4 -5/1/4 -3/1/4
f -3/1/4 -5/1/4 -2/1/4
f -2/1/4 -5/1/4 -1/1/4
v -9 2 -2.5
v -9 5 -2.5
v -8 2 -2.5
v -8 3 -2.5
v -4 4 -2.5
v -4 5 -2.5
v -2 3 -2.5
v -2 4 -2.5
v 3 3 -2.5
v 3 4 -2.5
v 5 4 -2.5
v 5 5 -2.5
v 9 2 -2.5
v 9 3 -2.5
v 10 2 -2.5
v 10 5 -2.5
f -16/2/4 -15/2/4 -14/2/4
f -14/2/4 -15/2/4 -13/2/4
f -13/2/4 -15/2/4 -12/2/4
f -12/2/4 -15/2/4 -11/2/4
f -13/2/4 -12/2/4 -10/2/4
f -10/2/4 -12/2/4 -9/2/4
f -8/2/4 -7/2/4 -6/2/4
f -8/2/4 -6/2/4 -3/2/4
f -6/2/4 -5/2/4 -3/2/4
f -4/2/4 -3/2/4 -2/2/4
f -3/2/4 -5/2/4 -1/2/4
f -2/2/4 -3/2/4 -1/2/4
v -10 0 0.5
v -9 0 0.5
v 10 0 0.5
v 11 0 0.5
v -10 0 -0.5
v -9 0 -0.5
v 10 0 -0.5
v 11 0 -0.5
f -4/1/5 -7/1/5 -8/1/5
f -3/1/5 -7/1/5 -4/1/5
f -2/1/5 -5/1/5 -6/1/5
f -1/1/5 -5/1/5 -2/1/5
v -10 1 1.5
v -9 1 1.5
v 10 1 1.5
v 11 1 1.5
v -10 1 0.5
v -9 1 0.5
v 10 1 0.5
v 11 1 0.5
v -10 1 -0.5
v -9 1 -0.5
v 10 1 -0.5
v 11 1 -0.5
v -10 1 -1.5
v -9 1 -1.5
v 10 1 -1.5
v 11 1 -1.5
f -12/1/5 -15/1/5 -16/1/5
f -11/1/5 -15/1/5 -12/1/5
f -10/1/5 -13/1/5 -14/1/5
f -9/1/5 -13/1/5 -10/1/5
f -4/1/5 -7/1/5 -8/1/5
f -3/1/5 -7/1/5 -4/1/5
f -2/1/5 -5/1/5 -6/1/5
f -1/1/5 -5/1/5 -2/1/5
v -9 2 2.5
v -8 2 2.5
v 9 2 2.5
v 10 2 2.5
v -9 2 1.5
v -8 2 1.5
v -1 2 1.5
v 2 2 1.5
v 9 2 1.5
v 10 2 1.5
v -9 2 -1.5
v -8 2 -1.5
v -1 2 -1.5
v 2 2 -1.5
v 9 2 -1.5
v 10 2 -1.5
v -9 2 -2.5
v -8 2 -2.5
v 9 2 -2.5
v 10 2 -2.5
f -16/2/5 -19/2/5 -20/2/5
f -15/2/5 -19/2/5 -16/2/5
f -12/2/5 -17/2/5 -18/2/5
f -11/2/5 -17/2/5 -12/2/5
f -10/2/5 -14/2/5 -15/2/5
f -10/2/5 -15/2/5 -16/2/5
f -9/2/5 -14/2/5 -10/2/5
f -8/2/5 -14/2/5 -9/2/5
f -7/2/5 -11/2/5 -12/2/5
f -7/2/5 -12/2/5 -13/2/5
f -6/2/5 -11/2/5 -7/2/5
f -5/2/5 -11/2/5 -6/2/5
f -4/2/5 -9/2/5 -10/2/5
f -3/2/5 -9/2/5 -4/2/5
f -2/2/5 -5/2/5 -6/2/5
f -1/2/5 -5/2/5 -2/2/5
v -8 3 2.5
v -2 3 2.5
v 3 3 2.5
v 9 3 2.5
v -11 3 1.5
v -10 3 1.5
v -8 3 1.5
v -2 3 1.5
v -1 3 1.5
v 2 3 1.5
v 3 3 1.5
v 9 3 1.5
v 11 3 1.5
v 12 3 1.5
v -11 3 -1.5
v -10 3 -1.5
v -8 3 -1.5
v -2 3 -1.5
v -1 3 -1.5
v 2 3 -1.5
v 3 3 -1.5
v 9 3 -1.5
v 11 3 -1.5
v 12 3 -1.5
v -8 3 -2.5
v -2 3 -2.5
v 3 3 -2.5
v 9 3 -2.5
f -22/2/5 -27/2/5 -28/2/5
f -21/2/5 -27/2/5 -22/2/5
f -18/2/5 -25/2/5 -26/2/5
f -17/2/5 -25/2/5 -18/2/5
f -14/3/5 -23/3/5 -24/3/5
f -13/3/5 -23/3/5 -14/3/5
f -10/4/5 -19/4/5 -20/4/5
f -9/4/5 -19/4/5 -10/4/5
f -6/3/5 -15/3/5 -16/3/5
f -5/3/5 -15/3/5 -6/3/5
f -4/2/5 -11/2/5 -12/2/5
f -3/2/5 -11/2/5 -4/2/5
f -2/2/5 -7/2/5 -8/2/5
f -1/2/5 -7/2/5 -2/2/5
v -13 4 1.5
v -11 4 1.5
v 12 4 1.5
v 14 4 1.5
v -13 4 -1.5
v -11 4 -1.5
v 12 4 -1.5
v 14 4 -1.5
f -4/3/5 -7/3/5 -8/3/5
f -3/3/5 -7/3/5 -4/3/5
f -2/3/5 -5/3/5 -6/3/5
f -1/3/5 -5/3/5 -2/3/5
v -15 5 1.5
v -13 5 1.5
v 14 5 1.5
v 15 5 1.5
v -15 5 -1.5
v -13 5 -1.5
v 14 5 -1.5
v 15 5 -1.5
f -4/3/5 -7/3/5 -8/3/5
f -3/3/5 -7/3/5 -4/3/5
f -2/3/5 -5/3/5 -6/3/5
f -1/3/5 -5/3/5 -2/3/5
v -16 6 1.5
v -15 6 1.5
v 15 6 1.5
v 16 6 1.5
v -16 6 -1.5
v -15 6 -1.5
v 15 6 -1.5
v 16 6 -1.5
f -4/3/5 -7/3/5 -8/3/5
f -3/3/5 -7/3/5 -4/3/5
f -2/3/5 -5/3/5 -6/3/5
f -1/3/5 -5/3/5 -2/3/5
v -17 7 1.5
v -16 7 1.5
v 16 7 1.5
v 17 7 1.5
v -17 7 -1.5
v -16 7 -1.5
v 16 7 -1.5
v 17 7 -1.5
f -4/3/5 -7/3/5 -8/3/5
f -3/3/5 -7/3/5 -4/3/5
f -2/3/5 -5/3/5 -6/3/5
f -1/3/5 -5/3/5 -2/3/5
v -18 8 1.5
v -17 8 1.5
v 17 8 1.5
v 18 8 1.5
v -18 8 -1.5
v -17 8 -1.5
v 17 8 -1.5
v 18 8 -1.5
f -4/3/5 -7/3/5 -8/3/5
f -3/3/5 -7/3/5 -4/3/5
f -2/3/5 -5/3/5 -6/3/5
f -1/3/5 -5/3/5 -2/3/5
v -20 9 1.5
v -18 9 1.5
v 18 9 1.5
v 20 9 1.5
v -20 9 -1.5
v -18 9 -1.5
v 18 9 -1.5
v 20 9 -1.5
f -4/3/5 -7/3/5 -8/3/5
f -3/3/5 -7/3/5 -4/3/5
f -2/3/5 -5/3/5 -6/3/5
f -1/3/5 -5/3/5 -2/3/5
v -21 10 1.5
v -20 10 1.5
v 20 10 1.5
v 21 10 1.5
v -21 10 -1.5
v -20 10 -1.5
v 20 10 -1.5
v 21 10 -1.5
f -4/3/5 -7/3/5 -8/3/5
f -3/3/5 -7/3/5 -4/3/5
f -2/3/5 -5/3/5 -6/3/5
f -1/3/5 -5/3/5 -2/3/5
v -22 13 1.5
v -21 13 1.5
v 21 13 1.5
v 22 13 1.5
v -22 13 -1.5
v -21 13 -1.5
v 21 13 -1.5
v 22 13 -1.5
f -4/1/5 -7/1/5 -8/1/5
f -3/1/5 -7/1/5 -4/1/5
f -2/1/5 -5/1/5 -6/1/5
f -1/1/5 -5/1/5 -2/1/5
v -23 14 1.5
v -22 14 1.5
v 22 14 1.5
v 23 14 1.5
v -23 14 -1.5
v -22 14 -1.5
v 22 14 -1.5
v 23 14 -1.5
f -4/1/5 -7/1/5 -8/1/5
f -3/1/5 -7/1/5 -4/1/5
f -2/1/5 -5/1/5 -6/1/5
f -1/1/5 -5/1/5 -2/1/5
v -8 4 2.5
v -2 4 2.5
v 3 4 2.5
v 9 4 2.5
v -8 4 1.5
v -4 4 1.5
v -2 4 1.5
v 3 4 1.5
v 5 4 1.5
v 9 4 1.5
v -4 4 -1.5
v -2 4 -1.5
v 3 4 -1.5
v 5 4 -1.5
v -4 4 -2.5
v -2 4 -2.5
v 3 4 -2.5
v 5 4 -2.5
f -18/2/6 -17/2/6 -14/2/6
f -14/2/6 -17/2/6 -13/2/6
f -13/2/6 -17/2/6 -12/2/6
f -16/2/6 -15/2/6 -11/2/6
f -11/2/6 -15/2/6 -10/2/6
f -10/2/6 -15/2/6 -9/2/6
f -13/4/6 -12/4/6 -8/4/6
f -11/4/6 -10/4/6 -8/4/6
f -12/4/6 -11/4/6 -8/4/6
f -8/4/6 -10/4/6 -7/4/6
f -7/4/6 -10/4/6 -6/4/6
f -6/4/6 -10/4/6 -5/4/6
f -8/2/6 -7/2/6 -4/2/6
f -4/2/6 -7/2/6 -3/2/6
f -6/2/6 -5/2/6 -2/2/6
f -2/2/6 -5/2/6 -1/2/6
v -9 5 2.5
v -8 5 2.5
v 9 5 2.5
v 10 5 2.5
v -11 5 1.5
v -10 5 1.5
v -9 5 1.5
v -8 5 1.5
v -4 5 1.5
v 5 5 1.5
v 9 5 1.5
v 10 5 1.5
v 11 5 1.5
v 12 5 1.5
v -11 5 -1.5
v -10 5 -1.5
v -9 5 -1.5
v 10 5 -1.5
v 11 5 -1.5
v 12 5 -1.5
v -9 5 -2.5
v -4 5 -2.5
v 5 5 -2.5
v 10 5 -2.5
f -24/2/6 -23/2/6 -18/2/6
f -18/2/6 -23/2/6 -17/2/6
f -22/2/6 -21/2/6 -14/2/6
f -14/2/6 -21/2/6 -13/2/6
f -20/3/6 -19/3/6 -10/3/6
f -10/3/6 -19/3/6 -9/3/6
f -17/2/6 -16/2/6 -8/2/6
f -18/2/6 -17/2/6 -8/2/6
f -15/2/6 -14/2/6 -7/2/6
f -14/2/6 -13/2/6 -7/2/6
f -12/3/6 -11/3/6 -6/3/6
f -6/3/6 -11/3/6 -5/3/6
f -8/2/6 -16/2/6 -4/2/6
f -4/2/6 -16/2/6 -3/2/6
f -15/2/6 -7/2/6 -2/2/6
f -2/2/6 -7/2/6 -1/2/6
v -13 6 1.5
v -11 6 1.5
v -10 6 1.5
v -9 6 1.5
v 10 6 1.5
v 11 6 1.5
v 12 6 1.5
v 13 6 1.5
v -13 6 -1.5
v -11 6 -1.5
v -10 6 -1.5
v -9 6 -1.5
v 10 6 -1.5
v 11 6 -1.5
v 12 6 -1.5
v 13 6 -1.5
f -16/3/6 -15/3/6 -8/3/6
f -8/3/6 -15/3/6 -7/3/6
f -14/1/6 -13/1/6 -6/1/6
f -6/1/6 -13/1/6 -5/1/6
f -12/1/6 -11/1/6 -4/1/6
f -4/1/6 -11/1/6 -3/1/6
f -10/3/6 -9/3/6 -2/3/6
f -2/3/6 -9/3/6 -1/3/6
v -14 7 1.5
v -13 7 1.5
v 13 7 1.5
v 14 7 1.5
v -14 7 -1.5
v -13 7 -1.5
v 13 7 -1.5
v 14 7 -1.5
f -8/3/6 -7/3/6 -4/3/6
f -4/3/6 -7/3/6 -3/3/6
f -6/3/6 -5/3/6 -2/3/6
f -2/3/6 -5/3/6 -1/3/6
v -15 8 1.5
v -14 8 1.5
v 14 8 1.5
v 15 8 1.5
v -15 8 -1.5
v -14 8 -1.5
v 14 8 -1.5
v 15 8 -1.5
f -8/3/6 -7/3/6 -4/3/6
f -4/3/6 -7/3/6 -3/3/6
f -6/3/6 -5/3/6 -2/3/6
f -2/3/6 -5/3/6 -1/3/6
v -16 9 1.5
v -15 9 1.5
v 15 9 1.5
v 16 9 1.5
v -16 9 -1.5
v -15 9 -1.5
v 15 9 -1.5
v 16 9 -1.5
f -8/3/6 -7/3/6 -4/3/6
f -4/3/6 -7/3/6 -3/3/6
f -6/3/6 -5/3/6 -2/3/6
f -2/3/6 -5/3/6 -1/3/6
v -18 10 1.5
v -16 10 1.5
v 16 10 1.5
v 18 10 1.5
v -18 10 -1.5
v -16 10 -1.5
v 16 10 -1.5
v 18 10 -1.5
f -8/3/6 -7/3/6 -4/3/6
f -4/3/6 -7/3/6 -3/3/6
f -6/3/6 -5/3/6 -2/3/6
f -2/3/6 -5/3/6 -1/3/6
v -19 11 1.5
v -18 11 1.5
v 18 11 1.5
v 19 11 1.5
v -19 11 -1.5
v -18 11 -1.5
v 18 11 -1.5
v 19 11 -1.5
f -8/3/6 -7/3/6 -4/3/6
f -4/3/6 -7/3/6 -3/3/6
f -6/3/6 -5/3/6 -2/3/6
f -2/3/6 -5/3/6 -1/3/6
v -20 12 1.5
v -19 12 1.5
v 19 12 1.5
v 20 12 1.5
v -20 12 -1.5
v -19 12 -1.5
v 19 12 -1.5
v 20 12 -1.5
f -8/3/6 -7/3/6 -4/3/6
f -4/3/6 -7/3/6 -3/3/6
f -6/3/6 -5/3/6 -2/3/6
f -2/3/6 -5/3/6 -1/3/6
v -23 15 1.5
v -21 15 1.5
v -20 15 1.5
v 20 15 1.5
v 21 15 1.5
v 23 15 1.5
v -23 15 -1.5
v -21 15 -1.5
v -20 15 -1.5
v 20 15 -1.5
v 21 15 -1.5
v 23 15 -1.5
f -12/1/6 -11/1/6 -6/1/6
f -11/3/6 -10/3/6 -5/3/6
f -6/1/6 -11/1/6 -5/1/6
f -5/3/6 -10/3/6 -4/3/6
f -9/3/6 -8/3/6 -3/3/6
f -8/1/6 -7/1/6 -2/1/6
f -3/3/6 -8/3/6 -2/3/6
f -2/1/6 -7/1/6 -1/1/6
